<?xml version="1.0" standalone="no"?>
 <!DOCTYPE svg PUBLIC "-//W3C//DTD SVG 1.1//EN" 
 "http://www.w3.org/Graphics/SVG/1.1/DTD/svg11.dtd"> 
<svg xmlns="http://www.w3.org/2000/svg" version="1.1" 
    width="16.2331cm" height="13.1928cm" viewBox="0 0 63910 51940 ">
<title>SVG Picture created as redox_rev2-brd.svg date 2018/05/19 09:41:39 </title>
  <desc>Picture generated by PCBNEW </desc>
<g style="fill:#000000; fill-opacity:1;stroke:#000000; stroke-opacity:1;
stroke-linecap:round; stroke-linejoin:round; "
 transform="translate(0 0) scale(1 1)">
</g>
<g style="fill:#000000; fill-opacity:0.0; 
stroke:#000000; stroke-width:-0.000393701; stroke-opacity:1; 
stroke-linecap:round; stroke-linejoin:round;">
</g>
<g style="fill:#000000; fill-opacity:0.0; 
stroke:#000000; stroke-width:78.7402; stroke-opacity:1; 
stroke-linecap:round; stroke-linejoin:round;">
<circle cx="9246.24" cy="33663.1" r="667.083" /> 
<circle cx="52746.2" cy="39713.1" r="667.083" /> 
<circle cx="45996.2" cy="3413.07" r="667.083" /> 
<circle cx="15221.2" cy="3988.07" r="818.917" /> 
<circle cx="2496.24" cy="4163.07" r="667.083" /> 
</g>
<g style="fill:#000000; fill-opacity:0.0; 
stroke:#000000; stroke-width:60; stroke-opacity:1; 
stroke-linecap:round; stroke-linejoin:round;">
<path d="M10496 6413
L15996 6413
" />
<path d="M15996 6413
L15996 11913
" />
<path d="M15996 11913
L10496 11913
" />
<path d="M10496 11913
L10496 6413
" />
<path d="M17996 4663
L23496 4663
" />
<path d="M23496 4663
L23496 10163
" />
<path d="M23496 10163
L17996 10163
" />
<path d="M17996 10163
L17996 4663
" />
<path d="M25496 3663
L30996 3663
" />
<path d="M30996 3663
L30996 9163
" />
<path d="M30996 9163
L25496 9163
" />
<path d="M25496 9163
L25496 3663
" />
<path d="M32996 4663
L38496 4663
" />
<path d="M38496 4663
L38496 10163
" />
<path d="M38496 10163
L32996 10163
" />
<path d="M32996 10163
L32996 4663
" />
<path d="M40496 5413
L45996 5413
" />
<path d="M45996 5413
L45996 10913
" />
<path d="M45996 10913
L40496 10913
" />
<path d="M40496 10913
L40496 5413
" />
<path d="M47996 9163
L53496 9163
" />
<path d="M53496 9163
L53496 14663
" />
<path d="M53496 14663
L47996 14663
" />
<path d="M47996 14663
L47996 9163
" />
<path d="M10496 13913
L15996 13913
" />
<path d="M15996 13913
L15996 19413
" />
<path d="M15996 19413
L10496 19413
" />
<path d="M10496 19413
L10496 13913
" />
<path d="M17996 12163
L23496 12163
" />
<path d="M23496 12163
L23496 17663
" />
<path d="M23496 17663
L17996 17663
" />
<path d="M17996 17663
L17996 12163
" />
<path d="M25496 11163
L30996 11163
" />
<path d="M30996 11163
L30996 16663
" />
<path d="M30996 16663
L25496 16663
" />
<path d="M25496 16663
L25496 11163
" />
<path d="M32996 12163
L38496 12163
" />
<path d="M38496 12163
L38496 17663
" />
<path d="M38496 17663
L32996 17663
" />
<path d="M32996 17663
L32996 12163
" />
<path d="M40496 12913
L45996 12913
" />
<path d="M45996 12913
L45996 18413
" />
<path d="M45996 18413
L40496 18413
" />
<path d="M40496 18413
L40496 12913
" />
<path d="M10496 21413
L15996 21413
" />
<path d="M15996 21413
L15996 26913
" />
<path d="M15996 26913
L10496 26913
" />
<path d="M10496 26913
L10496 21413
" />
<path d="M17996 19663
L23496 19663
" />
<path d="M23496 19663
L23496 25163
" />
<path d="M23496 25163
L17996 25163
" />
<path d="M17996 25163
L17996 19663
" />
<path d="M25496 18663
L30996 18663
" />
<path d="M30996 18663
L30996 24163
" />
<path d="M30996 24163
L25496 24163
" />
<path d="M25496 24163
L25496 18663
" />
<path d="M32996 19663
L38496 19663
" />
<path d="M38496 19663
L38496 25163
" />
<path d="M38496 25163
L32996 25163
" />
<path d="M32996 25163
L32996 19663
" />
<path d="M40496 20413
L45996 20413
" />
<path d="M45996 20413
L45996 25913
" />
<path d="M45996 25913
L40496 25913
" />
<path d="M40496 25913
L40496 20413
" />
<path d="M51239 29406
L56002 32156
" />
<path d="M56002 32156
L53252 36919
" />
<path d="M53252 36919
L48489 34169
" />
<path d="M48489 34169
L51239 29406
" />
<path d="M10496 28913
L15996 28913
" />
<path d="M15996 28913
L15996 34413
" />
<path d="M15996 34413
L10496 34413
" />
<path d="M10496 34413
L10496 28913
" />
<path d="M17996 27163
L23496 27163
" />
<path d="M23496 27163
L23496 32663
" />
<path d="M23496 32663
L17996 32663
" />
<path d="M17996 32663
L17996 27163
" />
<path d="M25496 26163
L30996 26163
" />
<path d="M30996 26163
L30996 31663
" />
<path d="M30996 31663
L25496 31663
" />
<path d="M25496 31663
L25496 26163
" />
<path d="M32996 27163
L38496 27163
" />
<path d="M38496 27163
L38496 32663
" />
<path d="M38496 32663
L32996 32663
" />
<path d="M32996 32663
L32996 27163
" />
<path d="M40496 27913
L45996 27913
" />
<path d="M45996 27913
L45996 33413
" />
<path d="M45996 33413
L40496 33413
" />
<path d="M40496 33413
L40496 27913
" />
<path d="M2996 36413
L8496 36413
" />
<path d="M8496 36413
L8496 41913
" />
<path d="M8496 41913
L2996 41913
" />
<path d="M2996 41913
L2996 36413
" />
<path d="M10496 36413
L15996 36413
" />
<path d="M15996 36413
L15996 41913
" />
<path d="M15996 41913
L10496 41913
" />
<path d="M10496 41913
L10496 36413
" />
<path d="M17996 34663
L23496 34663
" />
<path d="M23496 34663
L23496 40163
" />
<path d="M23496 40163
L17996 40163
" />
<path d="M17996 40163
L17996 34663
" />
<path d="M25496 33663
L30996 33663
" />
<path d="M30996 33663
L30996 39163
" />
<path d="M30996 39163
L25496 39163
" />
<path d="M25496 39163
L25496 33663
" />
<path d="M1996 6413
L7496 6413
" />
<path d="M7496 6413
L7496 11913
" />
<path d="M7496 11913
L1996 11913
" />
<path d="M1996 11913
L1996 6413
" />
<path d="M1996 13913
L7496 13913
" />
<path d="M7496 13913
L7496 19413
" />
<path d="M7496 19413
L1996 19413
" />
<path d="M1996 19413
L1996 13913
" />
<path d="M1996 21413
L7496 21413
" />
<path d="M7496 21413
L7496 26913
" />
<path d="M7496 26913
L1996 26913
" />
<path d="M1996 26913
L1996 21413
" />
<path d="M1996 28913
L7496 28913
" />
<path d="M7496 28913
L7496 34413
" />
<path d="M7496 34413
L1996 34413
" />
<path d="M1996 34413
L1996 28913
" />
<path d="M36301 35295
L41614 36718
" />
<path d="M41614 36718
L40190 42031
" />
<path d="M40190 42031
L34878 40607
" />
<path d="M34878 40607
L36301 35295
" />
<path d="M57739 33156
L62502 35906
" />
<path d="M62502 35906
L59752 40669
" />
<path d="M59752 40669
L54989 37919
" />
<path d="M54989 37919
L57739 33156
" />
<path d="M51252 40406
L48502 45169
" />
<path d="M48502 45169
L43739 42419
" />
<path d="M43739 42419
L46489 37656
" />
<path d="M46489 37656
L51252 40406
" />
<path d="M57752 44156
L55002 48919
" />
<path d="M55002 48919
L50239 46169
" />
<path d="M50239 46169
L52989 41406
" />
<path d="M52989 41406
L57752 44156
" />
<path d="M53496 18663
L53496 24163
" />
<path d="M53496 24163
L47996 24163
" />
<path d="M47996 24163
L47996 18663
" />
<path d="M47996 18663
L53496 18663
" />
</g>
<g style="fill:#000000; fill-opacity:0.0; 
stroke:#000000; stroke-width:39.3701; stroke-opacity:1; 
stroke-linecap:round; stroke-linejoin:round;">
<path d="M52496 2113
L2046 2113
" />
<path d="M54496 4113
L54496 8113
" />
<path d="M46 4113
L46 5413
" />
<path d="M46 4113
L2046 2113
" />
<path d="M54496 4113
L52496 2113
" />
<path d="M29446 40213
L25446 40213
" />
<path d="M54496 30113
L63896 35513
" />
<path d="M54496 8113
L54496 30113
" />
<path d="M54446 51913
L63896 35513
" />
<path d="M54396 51913
L54446 51913
" />
<path d="M38096 42513
L29446 40213
" />
<path d="M54396 51913
L38096 42513
" />
<path d="M24446 41213
L25446 40213
" />
<path d="M18646 41213
L24446 41213
" />
<path d="M16946 42913
L18646 41213
" />
<path d="M1946 42913
L16946 42913
" />
<path d="M1946 37313
L1946 42913
" />
<path d="M46 35413
L1946 37313
" />
<path d="M46 5413
L46 35413
" />
</g> 
</svg>
