0
SECTION
2
HEADER
9
$INSUNITS
70
4
0
ENDSEC
0
SECTION
2
TABLES
0
TABLE
2
LTYPE
0
LTYPE
72
65
70
64
2
CONTINUOUS
3
______
73
0
40
0
0
ENDTAB
0
TABLE
2
LAYER
0
ENDTAB
0
ENDSEC
0
SECTION
2
ENTITIES
0
LINE
8
0
10
-9.25
20
-9.25
11
9.25
21
-9.25
0
LINE
8
0
10
9.25
20
-9.25
11
9.25
21
9.25
0
LINE
8
0
10
9.25
20
9.25
11
-9.25
21
9.25
0
LINE
8
0
10
-9.25
20
9.25
11
-9.25
21
-9.25
0
LINE
8
0
10
-9.25
20
9.75
11
9.25
21
9.75
0
LINE
8
0
10
9.25
20
9.75
11
9.25
21
28.25
0
LINE
8
0
10
9.25
20
28.25
11
-9.25
21
28.25
0
LINE
8
0
10
-9.25
20
28.25
11
-9.25
21
9.75
0
LINE
8
0
10
-9.25
20
28.75
11
9.25
21
28.75
0
LINE
8
0
10
9.25
20
28.75
11
9.25
21
47.25
0
LINE
8
0
10
9.25
20
47.25
11
-9.25
21
47.25
0
LINE
8
0
10
-9.25
20
47.25
11
-9.25
21
28.75
0
LINE
8
0
10
-9.25
20
47.75
11
9.25
21
47.75
0
LINE
8
0
10
9.25
20
47.75
11
9.25
21
66.25
0
LINE
8
0
10
9.25
20
66.25
11
-9.25
21
66.25
0
LINE
8
0
10
-9.25
20
66.25
11
-9.25
21
47.75
0
LINE
8
0
10
-9.25
20
66.75
11
9.25
21
66.75
0
LINE
8
0
10
9.25
20
66.75
11
9.25
21
85.25
0
LINE
8
0
10
9.25
20
85.25
11
-9.25
21
85.25
0
LINE
8
0
10
-9.25
20
85.25
11
-9.25
21
66.75
0
LINE
8
0
10
9.75
20
-9.25
11
28.25
21
-9.25
0
LINE
8
0
10
28.25
20
-9.25
11
28.25
21
9.25
0
LINE
8
0
10
28.25
20
9.25
11
9.75
21
9.25
0
LINE
8
0
10
9.75
20
9.25
11
9.75
21
-9.25
0
LINE
8
0
10
9.75
20
9.75
11
28.25
21
9.75
0
LINE
8
0
10
28.25
20
9.75
11
28.25
21
28.25
0
LINE
8
0
10
28.25
20
28.25
11
9.75
21
28.25
0
LINE
8
0
10
9.75
20
28.25
11
9.75
21
9.75
0
LINE
8
0
10
9.75
20
28.75
11
28.25
21
28.75
0
LINE
8
0
10
28.25
20
28.75
11
28.25
21
47.25
0
LINE
8
0
10
28.25
20
47.25
11
9.75
21
47.25
0
LINE
8
0
10
9.75
20
47.25
11
9.75
21
28.75
0
LINE
8
0
10
9.75
20
47.75
11
28.25
21
47.75
0
LINE
8
0
10
28.25
20
47.75
11
28.25
21
66.25
0
LINE
8
0
10
28.25
20
66.25
11
9.75
21
66.25
0
LINE
8
0
10
9.75
20
66.25
11
9.75
21
47.75
0
LINE
8
0
10
9.75
20
66.75
11
28.25
21
66.75
0
LINE
8
0
10
28.25
20
66.75
11
28.25
21
85.25
0
LINE
8
0
10
28.25
20
85.25
11
9.75
21
85.25
0
LINE
8
0
10
9.75
20
85.25
11
9.75
21
66.75
0
LINE
8
0
10
28.75
20
-9.25
11
47.25
21
-9.25
0
LINE
8
0
10
47.25
20
-9.25
11
47.25
21
9.25
0
LINE
8
0
10
47.25
20
9.25
11
28.75
21
9.25
0
LINE
8
0
10
28.75
20
9.25
11
28.75
21
-9.25
0
LINE
8
0
10
28.75
20
9.75
11
47.25
21
9.75
0
LINE
8
0
10
47.25
20
9.75
11
47.25
21
28.25
0
LINE
8
0
10
47.25
20
28.25
11
28.75
21
28.25
0
LINE
8
0
10
28.75
20
28.25
11
28.75
21
9.75
0
LINE
8
0
10
28.75
20
28.75
11
47.25
21
28.75
0
LINE
8
0
10
47.25
20
28.75
11
47.25
21
47.25
0
LINE
8
0
10
47.25
20
47.25
11
28.75
21
47.25
0
LINE
8
0
10
28.75
20
47.25
11
28.75
21
28.75
0
LINE
8
0
10
28.75
20
47.75
11
47.25
21
47.75
0
LINE
8
0
10
47.25
20
47.75
11
47.25
21
66.25
0
LINE
8
0
10
47.25
20
66.25
11
28.75
21
66.25
0
LINE
8
0
10
28.75
20
66.25
11
28.75
21
47.75
0
LINE
8
0
10
28.75
20
66.75
11
47.25
21
66.75
0
LINE
8
0
10
47.25
20
66.75
11
47.25
21
85.25
0
LINE
8
0
10
47.25
20
85.25
11
28.75
21
85.25
0
LINE
8
0
10
28.75
20
85.25
11
28.75
21
66.75
0
LINE
8
0
10
47.75
20
-9.25
11
66.25
21
-9.25
0
LINE
8
0
10
66.25
20
-9.25
11
66.25
21
9.25
0
LINE
8
0
10
66.25
20
9.25
11
47.75
21
9.25
0
LINE
8
0
10
47.75
20
9.25
11
47.75
21
-9.25
0
LINE
8
0
10
47.75
20
9.75
11
66.25
21
9.75
0
LINE
8
0
10
66.25
20
9.75
11
66.25
21
28.25
0
LINE
8
0
10
66.25
20
28.25
11
47.75
21
28.25
0
LINE
8
0
10
47.75
20
28.25
11
47.75
21
9.75
0
LINE
8
0
10
47.75
20
28.75
11
66.25
21
28.75
0
LINE
8
0
10
66.25
20
28.75
11
66.25
21
47.25
0
LINE
8
0
10
66.25
20
47.25
11
47.75
21
47.25
0
LINE
8
0
10
47.75
20
47.25
11
47.75
21
28.75
0
LINE
8
0
10
47.75
20
47.75
11
66.25
21
47.75
0
LINE
8
0
10
66.25
20
47.75
11
66.25
21
66.25
0
LINE
8
0
10
66.25
20
66.25
11
47.75
21
66.25
0
LINE
8
0
10
47.75
20
66.25
11
47.75
21
47.75
0
LINE
8
0
10
47.75
20
66.75
11
66.25
21
66.75
0
LINE
8
0
10
66.25
20
66.75
11
66.25
21
85.25
0
LINE
8
0
10
66.25
20
85.25
11
47.75
21
85.25
0
LINE
8
0
10
47.75
20
85.25
11
47.75
21
66.75
0
LINE
8
0
10
66.75
20
9.75
11
85.25
21
9.75
0
LINE
8
0
10
85.25
20
9.75
11
85.25
21
28.25
0
LINE
8
0
10
85.25
20
28.25
11
66.75
21
28.25
0
LINE
8
0
10
66.75
20
28.25
11
66.75
21
9.75
0
LINE
8
0
10
66.75
20
28.75
11
85.25
21
28.75
0
LINE
8
0
10
85.25
20
28.75
11
85.25
21
47.25
0
LINE
8
0
10
85.25
20
47.25
11
66.75
21
47.25
0
LINE
8
0
10
66.75
20
47.25
11
66.75
21
28.75
0
LINE
8
0
10
66.75
20
47.75
11
85.25
21
47.75
0
LINE
8
0
10
85.25
20
47.75
11
85.25
21
66.25
0
LINE
8
0
10
85.25
20
66.25
11
66.75
21
66.25
0
LINE
8
0
10
66.75
20
66.25
11
66.75
21
47.75
0
LINE
8
0
10
66.75
20
66.75
11
85.25
21
66.75
0
LINE
8
0
10
85.25
20
66.75
11
85.25
21
85.25
0
LINE
8
0
10
85.25
20
85.25
11
66.75
21
85.25
0
LINE
8
0
10
66.75
20
85.25
11
66.75
21
66.75
0
LINE
8
0
10
85.75
20
9.75
11
104.25
21
9.75
0
LINE
8
0
10
104.25
20
9.75
11
104.25
21
28.25
0
LINE
8
0
10
104.25
20
28.25
11
85.75
21
28.25
0
LINE
8
0
10
85.75
20
28.25
11
85.75
21
9.75
0
LINE
8
0
10
85.75
20
28.75
11
104.25
21
28.75
0
LINE
8
0
10
104.25
20
28.75
11
104.25
21
47.25
0
LINE
8
0
10
104.25
20
47.25
11
85.75
21
47.25
0
LINE
8
0
10
85.75
20
47.25
11
85.75
21
28.75
0
LINE
8
0
10
85.75
20
47.75
11
128
21
47.75
0
LINE
8
0
10
85.75
20
66.25
11
128
21
66.25
0
LINE
8
0
10
85.75
20
66.25
11
85.75
21
47.75
0
LINE
8
0
10
85.75
20
66.75
11
104.25
21
66.75
0
LINE
8
0
10
104.25
20
66.75
11
104.25
21
85.25
0
LINE
8
0
10
104.25
20
85.25
11
85.75
21
85.25
0
LINE
8
0
10
85.75
20
85.25
11
85.75
21
66.75
0
LINE
8
0
10
104.75
20
71.5
11
123.25
21
71.5
0
LINE
8
0
10
123.25
20
71.5
11
123.25
21
90
0
LINE
8
0
10
123.25
20
90
11
104.75
21
90
0
LINE
8
0
10
104.75
20
90
11
104.75
21
71.5
0
LINE
8
0
10
105.639265
20
9.5823683
11
121.660735
21
0.3323683
0
LINE
8
0
10
121.660735
20
0.3323683
11
130.910735
21
16.3538383
0
LINE
8
0
10
130.910735
20
16.3538383
11
114.889265
21
25.6038383
0
LINE
8
0
10
114.889265
20
25.6038383
11
105.639265
21
9.5823683
0
LINE
8
0
10
122.0937477
20
0.0823683
11
138.1152177
21
-9.1676317
0
LINE
8
0
10
138.1152177
20
-9.1676317
11
147.3652177
21
6.8538383
0
LINE
8
0
10
147.3652177
20
6.8538383
11
131.3437477
21
16.1038383
0
LINE
8
0
10
131.3437477
20
16.1038383
11
122.0937477
21
0.0823683
0
LINE
8
0
10
128
20
47.75
11
128
21
66.25
0
LINE
8
0
10
89.6506443
20
-8.610735
11
130.3538384
21
-32.110735
0
LINE
8
0
10
98.9006443
20
7.410735
11
139.6038384
21
-16.089265
0
LINE
8
0
10
98.9006443
20
7.410735
11
89.6506443
21
-8.610735
0
LINE
8
0
10
130.3538384
20
-32.110735
11
139.6038384
21
-16.089265
0
ENDSEC
0
EOF