G04 #@! TF.GenerationSoftware,KiCad,Pcbnew,(6.0.11)*
G04 #@! TF.CreationDate,2023-02-13T19:32:05+01:00*
G04 #@! TF.ProjectId,neo-redox,6e656f64-6f78-42e6-9b69-6361645f7063,1.0*
G04 #@! TF.SameCoordinates,Original*
G04 #@! TF.FileFunction,Soldermask,Bot*
G04 #@! TF.FilePolarity,Negative*
%FSLAX46Y46*%
G04 Gerber Fmt 4.6, Leading zero omitted, Abs format (unit mm)*
G04 Created by KiCad (PCBNEW (6.0.11)) date 2023-02-13 19:32:05*
%MOMM*%
%LPD*%
G01*
G04 APERTURE LIST*
G04 Aperture macros list*
%AMRotRect*
0 Rectangle, with rotation*
0 The origin of the aperture is its center*
0 $1 length*
0 $2 width*
0 $3 Rotation angle, in degrees counterclockwise*
0 Add horizontal line*
21,1,$1,$2,0,0,$3*%
%AMFreePoly0*
4,1,6,0.600000,0.200000,0.000000,-0.400000,-0.600000,0.200000,-0.600000,0.400000,0.600000,0.400000,0.600000,0.200000,0.600000,0.200000,$1*%
%AMFreePoly1*
4,1,6,0.600000,-0.250000,-0.600000,-0.250000,-0.600000,1.000000,0.000000,0.400000,0.600000,1.000000,0.600000,-0.250000,0.600000,-0.250000,$1*%
%AMFreePoly2*
4,1,6,0.600000,0.200000,0.000000,-0.400000,-0.600000,0.200000,-0.600000,0.500000,0.600000,0.500000,0.600000,0.200000,0.600000,0.200000,$1*%
G04 Aperture macros list end*
%ADD10C,0.100000*%
%ADD11C,3.000000*%
%ADD12C,3.987800*%
%ADD13C,1.701800*%
%ADD14C,2.286000*%
%ADD15RotRect,2.550000X2.500000X330.000000*%
%ADD16R,2.550000X2.500000*%
%ADD17R,1.600000X1.200000*%
%ADD18R,1.600000X1.600000*%
%ADD19C,1.600000*%
%ADD20RotRect,1.600000X1.200000X150.000000*%
%ADD21RotRect,1.600000X1.600000X150.000000*%
%ADD22FreePoly0,270.000000*%
%ADD23FreePoly0,90.000000*%
%ADD24FreePoly1,270.000000*%
%ADD25FreePoly1,90.000000*%
%ADD26C,0.900000*%
%ADD27R,2.500000X1.250000*%
%ADD28R,2.500000X2.550000*%
%ADD29R,1.000000X1.000000*%
%ADD30O,1.000000X1.000000*%
%ADD31RotRect,2.550000X2.500000X240.000000*%
%ADD32RotRect,2.550000X2.500000X345.000000*%
%ADD33C,2.000000*%
%ADD34C,3.200000*%
%ADD35R,1.500000X1.200000*%
%ADD36FreePoly2,180.000000*%
%ADD37C,1.200000*%
%ADD38O,3.700000X1.700000*%
%ADD39FreePoly2,0.000000*%
%ADD40FreePoly1,180.000000*%
%ADD41C,1.000000*%
%ADD42O,2.200000X1.700000*%
%ADD43FreePoly1,0.000000*%
%ADD44RotRect,1.600000X1.200000X165.000000*%
%ADD45RotRect,1.600000X1.600000X165.000000*%
G04 APERTURE END LIST*
G36*
X186494500Y-56137500D02*
G01*
X185478500Y-56137500D01*
X185478500Y-55121500D01*
X186494500Y-55121500D01*
X186494500Y-56137500D01*
G37*
D10*
X186494500Y-56137500D02*
X185478500Y-56137500D01*
X185478500Y-55121500D01*
X186494500Y-55121500D01*
X186494500Y-56137500D01*
G36*
X186494500Y-68837500D02*
G01*
X185478500Y-68837500D01*
X185478500Y-67821500D01*
X186494500Y-67821500D01*
X186494500Y-68837500D01*
G37*
X186494500Y-68837500D02*
X185478500Y-68837500D01*
X185478500Y-67821500D01*
X186494500Y-67821500D01*
X186494500Y-68837500D01*
G36*
X197594500Y-58597500D02*
G01*
X196578500Y-58597500D01*
X196578500Y-57581500D01*
X197594500Y-57581500D01*
X197594500Y-58597500D01*
G37*
X197594500Y-58597500D02*
X196578500Y-58597500D01*
X196578500Y-57581500D01*
X197594500Y-57581500D01*
X197594500Y-58597500D01*
G36*
X197594500Y-71297500D02*
G01*
X196578500Y-71297500D01*
X196578500Y-70281500D01*
X197594500Y-70281500D01*
X197594500Y-71297500D01*
G37*
X197594500Y-71297500D02*
X196578500Y-71297500D01*
X196578500Y-70281500D01*
X197594500Y-70281500D01*
X197594500Y-71297500D01*
G36*
X197594500Y-56057500D02*
G01*
X196578500Y-56057500D01*
X196578500Y-55041500D01*
X197594500Y-55041500D01*
X197594500Y-56057500D01*
G37*
X197594500Y-56057500D02*
X196578500Y-56057500D01*
X196578500Y-55041500D01*
X197594500Y-55041500D01*
X197594500Y-56057500D01*
G36*
X186494500Y-53597500D02*
G01*
X185478500Y-53597500D01*
X185478500Y-52581500D01*
X186494500Y-52581500D01*
X186494500Y-53597500D01*
G37*
X186494500Y-53597500D02*
X185478500Y-53597500D01*
X185478500Y-52581500D01*
X186494500Y-52581500D01*
X186494500Y-53597500D01*
G36*
X197594500Y-66217500D02*
G01*
X196578500Y-66217500D01*
X196578500Y-65201500D01*
X197594500Y-65201500D01*
X197594500Y-66217500D01*
G37*
X197594500Y-66217500D02*
X196578500Y-66217500D01*
X196578500Y-65201500D01*
X197594500Y-65201500D01*
X197594500Y-66217500D01*
G36*
X186494500Y-58677500D02*
G01*
X185478500Y-58677500D01*
X185478500Y-57661500D01*
X186494500Y-57661500D01*
X186494500Y-58677500D01*
G37*
X186494500Y-58677500D02*
X185478500Y-58677500D01*
X185478500Y-57661500D01*
X186494500Y-57661500D01*
X186494500Y-58677500D01*
G36*
X186494500Y-66297500D02*
G01*
X185478500Y-66297500D01*
X185478500Y-65281500D01*
X186494500Y-65281500D01*
X186494500Y-66297500D01*
G37*
X186494500Y-66297500D02*
X185478500Y-66297500D01*
X185478500Y-65281500D01*
X186494500Y-65281500D01*
X186494500Y-66297500D01*
G36*
X197594500Y-68757500D02*
G01*
X196578500Y-68757500D01*
X196578500Y-67741500D01*
X197594500Y-67741500D01*
X197594500Y-68757500D01*
G37*
X197594500Y-68757500D02*
X196578500Y-68757500D01*
X196578500Y-67741500D01*
X197594500Y-67741500D01*
X197594500Y-68757500D01*
G36*
X197594500Y-81457500D02*
G01*
X196578500Y-81457500D01*
X196578500Y-80441500D01*
X197594500Y-80441500D01*
X197594500Y-81457500D01*
G37*
X197594500Y-81457500D02*
X196578500Y-81457500D01*
X196578500Y-80441500D01*
X197594500Y-80441500D01*
X197594500Y-81457500D01*
G36*
X186494500Y-61217500D02*
G01*
X185478500Y-61217500D01*
X185478500Y-60201500D01*
X186494500Y-60201500D01*
X186494500Y-61217500D01*
G37*
X186494500Y-61217500D02*
X185478500Y-61217500D01*
X185478500Y-60201500D01*
X186494500Y-60201500D01*
X186494500Y-61217500D01*
G36*
X186494500Y-81537500D02*
G01*
X185478500Y-81537500D01*
X185478500Y-80521500D01*
X186494500Y-80521500D01*
X186494500Y-81537500D01*
G37*
X186494500Y-81537500D02*
X185478500Y-81537500D01*
X185478500Y-80521500D01*
X186494500Y-80521500D01*
X186494500Y-81537500D01*
G36*
X197594500Y-61137500D02*
G01*
X196578500Y-61137500D01*
X196578500Y-60121500D01*
X197594500Y-60121500D01*
X197594500Y-61137500D01*
G37*
X197594500Y-61137500D02*
X196578500Y-61137500D01*
X196578500Y-60121500D01*
X197594500Y-60121500D01*
X197594500Y-61137500D01*
G36*
X197594500Y-76377500D02*
G01*
X196578500Y-76377500D01*
X196578500Y-75361500D01*
X197594500Y-75361500D01*
X197594500Y-76377500D01*
G37*
X197594500Y-76377500D02*
X196578500Y-76377500D01*
X196578500Y-75361500D01*
X197594500Y-75361500D01*
X197594500Y-76377500D01*
G36*
X197594500Y-78917500D02*
G01*
X196578500Y-78917500D01*
X196578500Y-77901500D01*
X197594500Y-77901500D01*
X197594500Y-78917500D01*
G37*
X197594500Y-78917500D02*
X196578500Y-78917500D01*
X196578500Y-77901500D01*
X197594500Y-77901500D01*
X197594500Y-78917500D01*
G36*
X186494500Y-76457500D02*
G01*
X185478500Y-76457500D01*
X185478500Y-75441500D01*
X186494500Y-75441500D01*
X186494500Y-76457500D01*
G37*
X186494500Y-76457500D02*
X185478500Y-76457500D01*
X185478500Y-75441500D01*
X186494500Y-75441500D01*
X186494500Y-76457500D01*
G36*
X186494500Y-78997500D02*
G01*
X185478500Y-78997500D01*
X185478500Y-77981500D01*
X186494500Y-77981500D01*
X186494500Y-78997500D01*
G37*
X186494500Y-78997500D02*
X185478500Y-78997500D01*
X185478500Y-77981500D01*
X186494500Y-77981500D01*
X186494500Y-78997500D01*
G36*
X186494500Y-71377500D02*
G01*
X185478500Y-71377500D01*
X185478500Y-70361500D01*
X186494500Y-70361500D01*
X186494500Y-71377500D01*
G37*
X186494500Y-71377500D02*
X185478500Y-71377500D01*
X185478500Y-70361500D01*
X186494500Y-70361500D01*
X186494500Y-71377500D01*
G36*
X197594500Y-63677500D02*
G01*
X196578500Y-63677500D01*
X196578500Y-62661500D01*
X197594500Y-62661500D01*
X197594500Y-63677500D01*
G37*
X197594500Y-63677500D02*
X196578500Y-63677500D01*
X196578500Y-62661500D01*
X197594500Y-62661500D01*
X197594500Y-63677500D01*
G36*
X197594500Y-73837500D02*
G01*
X196578500Y-73837500D01*
X196578500Y-72821500D01*
X197594500Y-72821500D01*
X197594500Y-73837500D01*
G37*
X197594500Y-73837500D02*
X196578500Y-73837500D01*
X196578500Y-72821500D01*
X197594500Y-72821500D01*
X197594500Y-73837500D01*
G36*
X197594500Y-53517500D02*
G01*
X196578500Y-53517500D01*
X196578500Y-52501500D01*
X197594500Y-52501500D01*
X197594500Y-53517500D01*
G37*
X197594500Y-53517500D02*
X196578500Y-53517500D01*
X196578500Y-52501500D01*
X197594500Y-52501500D01*
X197594500Y-53517500D01*
G36*
X186494500Y-73917500D02*
G01*
X185478500Y-73917500D01*
X185478500Y-72901500D01*
X186494500Y-72901500D01*
X186494500Y-73917500D01*
G37*
X186494500Y-73917500D02*
X185478500Y-73917500D01*
X185478500Y-72901500D01*
X186494500Y-72901500D01*
X186494500Y-73917500D01*
G36*
X186494500Y-63757500D02*
G01*
X185478500Y-63757500D01*
X185478500Y-62741500D01*
X186494500Y-62741500D01*
X186494500Y-63757500D01*
G37*
X186494500Y-63757500D02*
X185478500Y-63757500D01*
X185478500Y-62741500D01*
X186494500Y-62741500D01*
X186494500Y-63757500D01*
D11*
X179069557Y-102505295D03*
X172418482Y-98665295D03*
D12*
X174500000Y-102800000D03*
D13*
X170100591Y-100260000D03*
D11*
X174840295Y-97130591D03*
D13*
X178899409Y-105340000D03*
D11*
X179187743Y-99640591D03*
D14*
X169930443Y-103094705D03*
X169760295Y-105929409D03*
D15*
X169170886Y-96790295D03*
D14*
X176529557Y-106904705D03*
X174159705Y-108469409D03*
D15*
X182435338Y-101515591D03*
D11*
X117010000Y-51380000D03*
X109330000Y-51380000D03*
D12*
X113200000Y-53920000D03*
D13*
X108120000Y-53920000D03*
D11*
X110660000Y-48840000D03*
D13*
X118280000Y-53920000D03*
D11*
X115680000Y-48840000D03*
D14*
X109390000Y-56460000D03*
X110660000Y-59000000D03*
D16*
X105580000Y-51380000D03*
D14*
X117010000Y-56460000D03*
X115740000Y-59000000D03*
D16*
X119430000Y-48840000D03*
D17*
X130800000Y-64700000D03*
D18*
X128300000Y-64700000D03*
D19*
X136100000Y-64700000D03*
D17*
X133600000Y-64700000D03*
D20*
X169275164Y-109500000D03*
D21*
X167110101Y-108250000D03*
D19*
X173865099Y-112150000D03*
D20*
X171700036Y-110900000D03*
X169987564Y-137200000D03*
D21*
X167822501Y-135950000D03*
D19*
X174577499Y-139850000D03*
D20*
X172412436Y-138600000D03*
D17*
X111700000Y-81300000D03*
D18*
X109200000Y-81300000D03*
D19*
X117000000Y-81300000D03*
D17*
X114500000Y-81300000D03*
D19*
X183932500Y-58197500D03*
D22*
X197394500Y-60737500D03*
D19*
X199172500Y-58197500D03*
D22*
X197394500Y-70897500D03*
D19*
X199172500Y-75977500D03*
D23*
X185710500Y-65817500D03*
D19*
X199172500Y-78517500D03*
X183932500Y-78517500D03*
D18*
X183932500Y-53117500D03*
D23*
X185710500Y-81057500D03*
D19*
X183932500Y-55657500D03*
X199172500Y-70897500D03*
D22*
X197394500Y-55657500D03*
D19*
X199172500Y-63277500D03*
D23*
X185710500Y-70897500D03*
D22*
X197394500Y-65817500D03*
D19*
X183932500Y-60737500D03*
D23*
X185710500Y-73437500D03*
D19*
X199172500Y-73437500D03*
D22*
X197394500Y-78517500D03*
D19*
X199172500Y-68357500D03*
X199172500Y-81057500D03*
D23*
X185710500Y-63277500D03*
X185710500Y-75977500D03*
X185710500Y-55657500D03*
D19*
X199172500Y-65817500D03*
X199172500Y-55657500D03*
D23*
X185710500Y-68357500D03*
D19*
X183932500Y-81057500D03*
D23*
X185710500Y-53117500D03*
D22*
X197394500Y-81057500D03*
D19*
X183932500Y-63277500D03*
D22*
X197394500Y-75977500D03*
X197394500Y-58197500D03*
X197394500Y-63277500D03*
X197394500Y-53117500D03*
D19*
X199172500Y-60737500D03*
X183932500Y-70897500D03*
D23*
X185710500Y-60737500D03*
D19*
X183932500Y-53117500D03*
X183932500Y-75977500D03*
X183932500Y-68357500D03*
D22*
X197394500Y-73437500D03*
D19*
X183932500Y-65817500D03*
D22*
X197394500Y-68357500D03*
D19*
X183932500Y-73437500D03*
D23*
X185710500Y-58197500D03*
D19*
X199172500Y-53117500D03*
D23*
X185710500Y-78517500D03*
D24*
X196378500Y-53117500D03*
X196378500Y-55657500D03*
X196378500Y-58197500D03*
X196378500Y-60737500D03*
X196378500Y-63277500D03*
X196378500Y-65817500D03*
X196378500Y-68357500D03*
X196378500Y-70897500D03*
X196378500Y-73437500D03*
X196378500Y-75977500D03*
X196378500Y-78517500D03*
X196378500Y-81057500D03*
D25*
X186726500Y-81057500D03*
X186726500Y-78517500D03*
X186726500Y-75977500D03*
X186726500Y-73437500D03*
X186726500Y-70897500D03*
X186726500Y-68357500D03*
X186726500Y-65817500D03*
X186726500Y-63277500D03*
X186726500Y-60737500D03*
X186726500Y-58197500D03*
X186726500Y-55657500D03*
X186726500Y-53117500D03*
D17*
X111600000Y-43300000D03*
D18*
X109100000Y-43300000D03*
D19*
X116900000Y-43300000D03*
D17*
X114400000Y-43300000D03*
D11*
X98010000Y-91760000D03*
X90330000Y-91760000D03*
D12*
X94200000Y-94300000D03*
D13*
X89120000Y-94300000D03*
D11*
X91660000Y-89220000D03*
D13*
X99280000Y-94300000D03*
D11*
X96680000Y-89220000D03*
D14*
X90390000Y-96840000D03*
X91660000Y-99380000D03*
D16*
X86580000Y-91760000D03*
D14*
X98010000Y-96840000D03*
X96740000Y-99380000D03*
D16*
X100430000Y-89220000D03*
D11*
X79010000Y-58560000D03*
X71330000Y-58560000D03*
D12*
X75200000Y-61100000D03*
D13*
X70120000Y-61100000D03*
D11*
X72660000Y-56020000D03*
D13*
X80280000Y-61100000D03*
D11*
X77680000Y-56020000D03*
D14*
X71390000Y-63640000D03*
X72660000Y-66180000D03*
D16*
X67580000Y-58560000D03*
D14*
X79010000Y-63640000D03*
X77740000Y-66180000D03*
D16*
X81430000Y-56020000D03*
D17*
X130700000Y-102900000D03*
D18*
X128200000Y-102900000D03*
D19*
X136000000Y-102900000D03*
D17*
X133500000Y-102900000D03*
X54800000Y-88300000D03*
D18*
X52300000Y-88300000D03*
D19*
X60100000Y-88300000D03*
D17*
X57600000Y-88300000D03*
D11*
X136010000Y-72760000D03*
X128330000Y-72760000D03*
D12*
X132200000Y-75300000D03*
D13*
X127120000Y-75300000D03*
D11*
X129660000Y-70220000D03*
D13*
X137280000Y-75300000D03*
D11*
X134680000Y-70220000D03*
D14*
X128390000Y-77840000D03*
X129660000Y-80380000D03*
D16*
X124580000Y-72760000D03*
D14*
X136010000Y-77840000D03*
X134740000Y-80380000D03*
D16*
X138430000Y-70220000D03*
D26*
X199200000Y-85300000D03*
X199200000Y-92100000D03*
D27*
X196450000Y-91200000D03*
X196450000Y-88700000D03*
X196450000Y-86200000D03*
D11*
X172740000Y-75810000D03*
X172740000Y-68130000D03*
D12*
X170200000Y-72000000D03*
D13*
X170200000Y-66920000D03*
D11*
X175280000Y-69460000D03*
D13*
X170200000Y-77080000D03*
D11*
X175280000Y-74480000D03*
D14*
X167660000Y-68190000D03*
X165120000Y-69460000D03*
D28*
X172740000Y-64380000D03*
D14*
X167660000Y-75810000D03*
X165120000Y-74540000D03*
D28*
X175280000Y-78230000D03*
D11*
X195524057Y-112005295D03*
X188872982Y-108165295D03*
D12*
X190954500Y-112300000D03*
D13*
X186555091Y-109760000D03*
D11*
X191294795Y-106630591D03*
D13*
X195353909Y-114840000D03*
D11*
X195642243Y-109140591D03*
D14*
X186384943Y-112594705D03*
X186214795Y-115429409D03*
D15*
X185625386Y-106290295D03*
D14*
X192984057Y-116404705D03*
X190614205Y-117969409D03*
D15*
X198889838Y-111015591D03*
D17*
X149900000Y-104900000D03*
D18*
X147400000Y-104900000D03*
D19*
X155200000Y-104900000D03*
D17*
X152700000Y-104900000D03*
D11*
X155010000Y-94160000D03*
X147330000Y-94160000D03*
D12*
X151200000Y-96700000D03*
D13*
X146120000Y-96700000D03*
D11*
X148660000Y-91620000D03*
D13*
X156280000Y-96700000D03*
D11*
X153680000Y-91620000D03*
D14*
X147390000Y-99240000D03*
X148660000Y-101780000D03*
D16*
X143580000Y-94160000D03*
D14*
X155010000Y-99240000D03*
X153740000Y-101780000D03*
D16*
X157430000Y-91620000D03*
D17*
X73500000Y-88400000D03*
D18*
X71000000Y-88400000D03*
D19*
X78800000Y-88400000D03*
D17*
X76300000Y-88400000D03*
X73792900Y-126400000D03*
D18*
X71292900Y-126400000D03*
D19*
X79092900Y-126400000D03*
D17*
X76592900Y-126400000D03*
D20*
X153430164Y-127700000D03*
D21*
X151265101Y-126450000D03*
D19*
X158020099Y-130350000D03*
D20*
X155855036Y-129100000D03*
D11*
X60010000Y-39560000D03*
X52330000Y-39560000D03*
D12*
X56200000Y-42100000D03*
D13*
X51120000Y-42100000D03*
D11*
X53660000Y-37020000D03*
D13*
X61280000Y-42100000D03*
D11*
X58680000Y-37020000D03*
D14*
X52390000Y-44640000D03*
X53660000Y-47180000D03*
D16*
X48580000Y-39560000D03*
D14*
X60010000Y-44640000D03*
X58740000Y-47180000D03*
D16*
X62430000Y-37020000D03*
D11*
X136010000Y-53740000D03*
X128330000Y-53740000D03*
D12*
X132200000Y-56280000D03*
D13*
X127120000Y-56280000D03*
D11*
X129660000Y-51200000D03*
D13*
X137280000Y-56280000D03*
D11*
X134680000Y-51200000D03*
D14*
X128390000Y-58820000D03*
X129660000Y-61360000D03*
D16*
X124580000Y-53740000D03*
D14*
X136010000Y-58820000D03*
X134740000Y-61360000D03*
D16*
X138430000Y-51200000D03*
D17*
X111600000Y-62500000D03*
D18*
X109100000Y-62500000D03*
D19*
X116900000Y-62500000D03*
D17*
X114400000Y-62500000D03*
X73600000Y-50700000D03*
D18*
X71100000Y-50700000D03*
D19*
X78900000Y-50700000D03*
D17*
X76400000Y-50700000D03*
D11*
X174010000Y-45660000D03*
X166330000Y-45660000D03*
D12*
X170200000Y-48200000D03*
D13*
X165120000Y-48200000D03*
D11*
X167660000Y-43120000D03*
D13*
X175280000Y-48200000D03*
D11*
X172680000Y-43120000D03*
D14*
X166390000Y-50740000D03*
X167660000Y-53280000D03*
D16*
X162580000Y-45660000D03*
D14*
X174010000Y-50740000D03*
X172740000Y-53280000D03*
D16*
X176430000Y-43120000D03*
D11*
X60010000Y-77560000D03*
X52330000Y-77560000D03*
D12*
X56200000Y-80100000D03*
D13*
X51120000Y-80100000D03*
D11*
X53660000Y-75020000D03*
D13*
X61280000Y-80100000D03*
D11*
X58680000Y-75020000D03*
D14*
X52390000Y-82640000D03*
X53660000Y-85180000D03*
D16*
X48580000Y-77560000D03*
D14*
X60010000Y-82640000D03*
X58740000Y-85180000D03*
D16*
X62430000Y-75020000D03*
D17*
X169500000Y-80500000D03*
D18*
X167000000Y-80500000D03*
D19*
X174800000Y-80500000D03*
D17*
X172300000Y-80500000D03*
X73800000Y-107600000D03*
D18*
X71300000Y-107600000D03*
D19*
X79100000Y-107600000D03*
D17*
X76600000Y-107600000D03*
D29*
X193000000Y-86350000D03*
D30*
X193000000Y-87620000D03*
D11*
X136010000Y-91840000D03*
X128330000Y-91840000D03*
D12*
X132200000Y-94380000D03*
D13*
X127120000Y-94380000D03*
D11*
X129660000Y-89300000D03*
D13*
X137280000Y-94380000D03*
D11*
X134680000Y-89300000D03*
D14*
X128390000Y-96920000D03*
X129660000Y-99460000D03*
D16*
X124580000Y-91840000D03*
D14*
X136010000Y-96920000D03*
X134740000Y-99460000D03*
D16*
X138430000Y-89300000D03*
D11*
X162831605Y-127864557D03*
X166671605Y-121213482D03*
D12*
X162536900Y-123295000D03*
D13*
X165076900Y-118895591D03*
D11*
X168206309Y-123635295D03*
D13*
X159996900Y-127694409D03*
D11*
X165696309Y-127982743D03*
D14*
X162242195Y-118725443D03*
X159407491Y-118555295D03*
D31*
X168546605Y-117965886D03*
D14*
X158432195Y-125324557D03*
X156867491Y-122954705D03*
D31*
X163821309Y-131230338D03*
D11*
X117010000Y-32360000D03*
X109330000Y-32360000D03*
D12*
X113200000Y-34900000D03*
D13*
X108120000Y-34900000D03*
D11*
X110660000Y-29820000D03*
D13*
X118280000Y-34900000D03*
D11*
X115680000Y-29820000D03*
D14*
X109390000Y-37440000D03*
X110660000Y-39980000D03*
D16*
X105580000Y-32360000D03*
D14*
X117010000Y-37440000D03*
X115740000Y-39980000D03*
D16*
X119430000Y-29820000D03*
D29*
X162200000Y-97060000D03*
D30*
X162200000Y-98330000D03*
X162200000Y-99600000D03*
D20*
X185775164Y-119000000D03*
D21*
X183610101Y-117750000D03*
D19*
X190365099Y-121650000D03*
D20*
X188200036Y-120400000D03*
D17*
X92792900Y-121400000D03*
D18*
X90292900Y-121400000D03*
D19*
X98092900Y-121400000D03*
D17*
X95592900Y-121400000D03*
X131100000Y-83700000D03*
D18*
X128600000Y-83700000D03*
D19*
X136400000Y-83700000D03*
D17*
X133900000Y-83700000D03*
X73900000Y-69400000D03*
D18*
X71400000Y-69400000D03*
D19*
X79200000Y-69400000D03*
D17*
X76700000Y-69400000D03*
D11*
X79010000Y-96560000D03*
X71330000Y-96560000D03*
D12*
X75200000Y-99100000D03*
D13*
X70120000Y-99100000D03*
D11*
X72660000Y-94020000D03*
D13*
X80280000Y-99100000D03*
D11*
X77680000Y-94020000D03*
D14*
X71390000Y-101640000D03*
X72660000Y-104180000D03*
D16*
X67580000Y-96560000D03*
D14*
X79010000Y-101640000D03*
X77740000Y-104180000D03*
D16*
X81430000Y-94020000D03*
D11*
X98010000Y-110760000D03*
X90330000Y-110760000D03*
D12*
X94200000Y-113300000D03*
D13*
X89120000Y-113300000D03*
D11*
X91660000Y-108220000D03*
D13*
X99280000Y-113300000D03*
D11*
X96680000Y-108220000D03*
D14*
X90390000Y-115840000D03*
X91660000Y-118380000D03*
D16*
X86580000Y-110760000D03*
D14*
X98010000Y-115840000D03*
X96740000Y-118380000D03*
D16*
X100430000Y-108220000D03*
D17*
X55700000Y-69600000D03*
D18*
X53200000Y-69600000D03*
D19*
X61000000Y-69600000D03*
D17*
X58500000Y-69600000D03*
D11*
X79010000Y-39560000D03*
X71330000Y-39560000D03*
D12*
X75200000Y-42100000D03*
D13*
X70120000Y-42100000D03*
D11*
X72660000Y-37020000D03*
D13*
X80280000Y-42100000D03*
D11*
X77680000Y-37020000D03*
D14*
X71390000Y-44640000D03*
X72660000Y-47180000D03*
D16*
X67580000Y-39560000D03*
D14*
X79010000Y-44640000D03*
X77740000Y-47180000D03*
D16*
X81430000Y-37020000D03*
D17*
X149700000Y-86100000D03*
D18*
X147200000Y-86100000D03*
D19*
X155000000Y-86100000D03*
D17*
X152500000Y-86100000D03*
D11*
X155010000Y-75160000D03*
X147330000Y-75160000D03*
D12*
X151200000Y-77700000D03*
D13*
X146120000Y-77700000D03*
D11*
X148660000Y-72620000D03*
D13*
X156280000Y-77700000D03*
D11*
X153680000Y-72620000D03*
D14*
X147390000Y-80240000D03*
X148660000Y-82780000D03*
D16*
X143580000Y-75160000D03*
D14*
X155010000Y-80240000D03*
X153740000Y-82780000D03*
D16*
X157430000Y-72620000D03*
D17*
X111792900Y-119400000D03*
D18*
X109292900Y-119400000D03*
D19*
X117092900Y-119400000D03*
D17*
X114592900Y-119400000D03*
D11*
X142237578Y-115632649D03*
X134819267Y-113644919D03*
D12*
X137900000Y-117100000D03*
D13*
X132993097Y-115785199D03*
D11*
X136761349Y-111535696D03*
D13*
X142806903Y-118414801D03*
D11*
X141610297Y-112834968D03*
D14*
X133562422Y-118567351D03*
X134131748Y-121349503D03*
D32*
X131197046Y-112674347D03*
D14*
X140922777Y-120539552D03*
X139038651Y-122664304D03*
D32*
X145232519Y-113805539D03*
D11*
X60010000Y-96560000D03*
X52330000Y-96560000D03*
D12*
X56200000Y-99100000D03*
D13*
X51120000Y-99100000D03*
D11*
X53660000Y-94020000D03*
D13*
X61280000Y-99100000D03*
D11*
X58680000Y-94020000D03*
D14*
X52390000Y-101640000D03*
X53660000Y-104180000D03*
D16*
X48580000Y-96560000D03*
D14*
X60010000Y-101640000D03*
X58740000Y-104180000D03*
D16*
X62430000Y-94020000D03*
D11*
X98010000Y-72760000D03*
X90330000Y-72760000D03*
D12*
X94200000Y-75300000D03*
D13*
X89120000Y-75300000D03*
D11*
X91660000Y-70220000D03*
D13*
X99280000Y-75300000D03*
D11*
X96680000Y-70220000D03*
D14*
X90390000Y-77840000D03*
X91660000Y-80380000D03*
D16*
X86580000Y-72760000D03*
D14*
X98010000Y-77840000D03*
X96740000Y-80380000D03*
D16*
X100430000Y-70220000D03*
D11*
X136010000Y-34740000D03*
X128330000Y-34740000D03*
D12*
X132200000Y-37280000D03*
D13*
X127120000Y-37280000D03*
D11*
X129660000Y-32200000D03*
D13*
X137280000Y-37280000D03*
D11*
X134680000Y-32200000D03*
D14*
X128390000Y-39820000D03*
X129660000Y-42360000D03*
D16*
X124580000Y-34740000D03*
D14*
X136010000Y-39820000D03*
X134740000Y-42360000D03*
D16*
X138430000Y-32200000D03*
D33*
X182150000Y-85950000D03*
X188650000Y-85950000D03*
X188650000Y-90450000D03*
X182150000Y-90450000D03*
D17*
X54700000Y-107500000D03*
D18*
X52200000Y-107500000D03*
D19*
X60000000Y-107500000D03*
D17*
X57500000Y-107500000D03*
X54800000Y-126400000D03*
D18*
X52300000Y-126400000D03*
D19*
X60100000Y-126400000D03*
D17*
X57600000Y-126400000D03*
X149800000Y-67100000D03*
D18*
X147300000Y-67100000D03*
D19*
X155100000Y-67100000D03*
D17*
X152600000Y-67100000D03*
D34*
X175563300Y-119831700D03*
D11*
X155010000Y-37160000D03*
X147330000Y-37160000D03*
D12*
X151200000Y-39700000D03*
D13*
X146120000Y-39700000D03*
D11*
X148660000Y-34620000D03*
D13*
X156280000Y-39700000D03*
D11*
X153680000Y-34620000D03*
D14*
X147390000Y-42240000D03*
X148660000Y-44780000D03*
D16*
X143580000Y-37160000D03*
D14*
X155010000Y-42240000D03*
X153740000Y-44780000D03*
D16*
X157430000Y-34620000D03*
D17*
X168500000Y-56600000D03*
D18*
X166000000Y-56600000D03*
D19*
X173800000Y-56600000D03*
D17*
X171300000Y-56600000D03*
D19*
X196900000Y-101200000D03*
D35*
X194350000Y-101200000D03*
X194350000Y-101200000D03*
X191650000Y-101200000D03*
X191650000Y-101200000D03*
D19*
X189100000Y-101200000D03*
D11*
X117010000Y-89460000D03*
X109330000Y-89460000D03*
D12*
X113200000Y-92000000D03*
D13*
X108120000Y-92000000D03*
D11*
X110660000Y-86920000D03*
D13*
X118280000Y-92000000D03*
D11*
X115680000Y-86920000D03*
D14*
X109390000Y-94540000D03*
X110660000Y-97080000D03*
D16*
X105580000Y-89460000D03*
D14*
X117010000Y-94540000D03*
X115740000Y-97080000D03*
D16*
X119430000Y-86920000D03*
D34*
X65687900Y-51587100D03*
D17*
X111900000Y-100500000D03*
D18*
X109400000Y-100500000D03*
D19*
X117200000Y-100500000D03*
D17*
X114700000Y-100500000D03*
D34*
X160687900Y-49212100D03*
D11*
X98010000Y-34760000D03*
X90330000Y-34760000D03*
D12*
X94200000Y-37300000D03*
D13*
X89120000Y-37300000D03*
D11*
X91660000Y-32220000D03*
D13*
X99280000Y-37300000D03*
D11*
X96680000Y-32220000D03*
D14*
X90390000Y-39840000D03*
X91660000Y-42380000D03*
D16*
X86580000Y-34760000D03*
D14*
X98010000Y-39840000D03*
X96740000Y-42380000D03*
D16*
X100430000Y-32220000D03*
D11*
X60010000Y-58560000D03*
X52330000Y-58560000D03*
D12*
X56200000Y-61100000D03*
D13*
X51120000Y-61100000D03*
D11*
X53660000Y-56020000D03*
D13*
X61280000Y-61100000D03*
D11*
X58680000Y-56020000D03*
D14*
X52390000Y-63640000D03*
X53660000Y-66180000D03*
D16*
X48580000Y-58560000D03*
D14*
X60010000Y-63640000D03*
X58740000Y-66180000D03*
D16*
X62430000Y-56020000D03*
D36*
X191634000Y-97900000D03*
D37*
X200294000Y-97200000D03*
D38*
X190744000Y-95100000D03*
D37*
X193294000Y-97200000D03*
D39*
X189856000Y-96500000D03*
D37*
X193294000Y-97200000D03*
D38*
X190744000Y-99300000D03*
D37*
X200294000Y-97200000D03*
D40*
X191634000Y-96800000D03*
D41*
X192194000Y-97200000D03*
D42*
X195494000Y-99300000D03*
X198494000Y-99300000D03*
D43*
X189856000Y-97600000D03*
D41*
X189256000Y-97200000D03*
D11*
X155010000Y-56120000D03*
X147330000Y-56120000D03*
D12*
X151200000Y-58660000D03*
D13*
X146120000Y-58660000D03*
D11*
X148660000Y-53580000D03*
D13*
X156280000Y-58660000D03*
D11*
X153680000Y-53580000D03*
D14*
X147390000Y-61200000D03*
X148660000Y-63740000D03*
D16*
X143580000Y-56120000D03*
D14*
X155010000Y-61200000D03*
X153740000Y-63740000D03*
D16*
X157430000Y-53580000D03*
D17*
X92700000Y-45700000D03*
D18*
X90200000Y-45700000D03*
D19*
X98000000Y-45700000D03*
D17*
X95500000Y-45700000D03*
D44*
X134347704Y-124787653D03*
D45*
X131932889Y-124140606D03*
D19*
X139467111Y-126159394D03*
D44*
X137052296Y-125512347D03*
D11*
X79010000Y-77560000D03*
X71330000Y-77560000D03*
D12*
X75200000Y-80100000D03*
D13*
X70120000Y-80100000D03*
D11*
X72660000Y-75020000D03*
D13*
X80280000Y-80100000D03*
D11*
X77680000Y-75020000D03*
D14*
X71390000Y-82640000D03*
X72660000Y-85180000D03*
D16*
X67580000Y-77560000D03*
D14*
X79010000Y-82640000D03*
X77740000Y-85180000D03*
D16*
X81430000Y-75020000D03*
D17*
X130700000Y-45800000D03*
D18*
X128200000Y-45800000D03*
D19*
X136000000Y-45800000D03*
D17*
X133500000Y-45800000D03*
X92400000Y-64600000D03*
D18*
X89900000Y-64600000D03*
D19*
X97700000Y-64600000D03*
D17*
X95200000Y-64600000D03*
X92900000Y-102600000D03*
D18*
X90400000Y-102600000D03*
D19*
X98200000Y-102600000D03*
D17*
X95700000Y-102600000D03*
X149800000Y-48200000D03*
D18*
X147300000Y-48200000D03*
D19*
X155100000Y-48200000D03*
D17*
X152600000Y-48200000D03*
D11*
X117010000Y-108460000D03*
X109330000Y-108460000D03*
D12*
X113200000Y-111000000D03*
D13*
X108120000Y-111000000D03*
D11*
X110660000Y-105920000D03*
D13*
X118280000Y-111000000D03*
D11*
X115680000Y-105920000D03*
D14*
X109390000Y-113540000D03*
X110660000Y-116080000D03*
D16*
X105580000Y-108460000D03*
D14*
X117010000Y-113540000D03*
X115740000Y-116080000D03*
D16*
X119430000Y-105920000D03*
D11*
X117010000Y-70380000D03*
X109330000Y-70380000D03*
D12*
X113200000Y-72920000D03*
D13*
X108120000Y-72920000D03*
D11*
X110660000Y-67840000D03*
D13*
X118280000Y-72920000D03*
D11*
X115680000Y-67840000D03*
D14*
X109390000Y-75460000D03*
X110660000Y-78000000D03*
D16*
X105580000Y-70380000D03*
D14*
X117010000Y-75460000D03*
X115740000Y-78000000D03*
D16*
X119430000Y-67840000D03*
D11*
X98010000Y-53760000D03*
X90330000Y-53760000D03*
D12*
X94200000Y-56300000D03*
D13*
X89120000Y-56300000D03*
D11*
X91660000Y-51220000D03*
D13*
X99280000Y-56300000D03*
D11*
X96680000Y-51220000D03*
D14*
X90390000Y-58840000D03*
X91660000Y-61380000D03*
D16*
X86580000Y-53760000D03*
D14*
X98010000Y-58840000D03*
X96740000Y-61380000D03*
D16*
X100430000Y-51220000D03*
D17*
X92800000Y-83700000D03*
D18*
X90300000Y-83700000D03*
D19*
X98100000Y-83700000D03*
D17*
X95600000Y-83700000D03*
D34*
X65697900Y-108577100D03*
D11*
X79010000Y-115560000D03*
X71330000Y-115560000D03*
D12*
X75200000Y-118100000D03*
D13*
X70120000Y-118100000D03*
D11*
X72660000Y-113020000D03*
D13*
X80280000Y-118100000D03*
D11*
X77680000Y-113020000D03*
D14*
X71390000Y-120640000D03*
X72660000Y-123180000D03*
D16*
X67580000Y-115560000D03*
D14*
X79010000Y-120640000D03*
X77740000Y-123180000D03*
D16*
X81430000Y-113020000D03*
D11*
X179294705Y-137369557D03*
X183134705Y-130718482D03*
D12*
X179000000Y-132800000D03*
D13*
X181540000Y-128400591D03*
D11*
X184669409Y-133140295D03*
D13*
X176460000Y-137199409D03*
D11*
X182159409Y-137487743D03*
D14*
X178705295Y-128230443D03*
X175870591Y-128060295D03*
D31*
X185009705Y-127470886D03*
D14*
X174895295Y-134829557D03*
X173330591Y-132459705D03*
D31*
X180284409Y-140735338D03*
D19*
X195900000Y-93000000D03*
D35*
X193350000Y-93000000D03*
X193350000Y-93000000D03*
X190650000Y-93000000D03*
X190650000Y-93000000D03*
D19*
X188100000Y-93000000D03*
D11*
X60010000Y-115560000D03*
X52330000Y-115560000D03*
D12*
X56200000Y-118100000D03*
D13*
X51120000Y-118100000D03*
D11*
X53660000Y-113020000D03*
D13*
X61280000Y-118100000D03*
D11*
X58680000Y-113020000D03*
D14*
X52390000Y-120640000D03*
X53660000Y-123180000D03*
D16*
X48580000Y-115560000D03*
D14*
X60010000Y-120640000D03*
X58740000Y-123180000D03*
D16*
X62430000Y-113020000D03*
D17*
X54900000Y-50600000D03*
D18*
X52400000Y-50600000D03*
D19*
X60200000Y-50600000D03*
D17*
X57700000Y-50600000D03*
M02*
