M48
; DRILL file {KiCad (6.0.11)} date lun 13 feb 2023 20:58:35
; FORMAT={-:-/ absolute / inch / decimal}
; #@! TF.CreationDate,2023-02-13T20:58:35+01:00
; #@! TF.GenerationSoftware,Kicad,Pcbnew,(6.0.11)
; #@! TF.FileFunction,Plated,1,2,PTH
FMAT,2
INCH
; #@! TA.AperFunction,Plated,PTH,ViaDrill
T1C0.0157
; #@! TA.AperFunction,Plated,PTH,ComponentDrill
T2C0.0197
; #@! TA.AperFunction,Plated,PTH,ComponentDrill
T3C0.0256
; #@! TA.AperFunction,Plated,PTH,ComponentDrill
T4C0.0394
; #@! TA.AperFunction,Plated,PTH,ComponentDrill
T5C0.0433
; #@! TA.AperFunction,Plated,PTH,ComponentDrill
T6C0.0590
%
G90
G05
T1
X2.5748Y-1.7323
X3.315Y-3.1614
X3.3386Y-1.7165
X4.0748Y-2.9803
X4.0827Y-2.3346
X4.8622Y-3.0197
X4.888Y-3.5077
X4.9921Y-4.2913
X5.5236Y-3.0984
X5.5591Y-3.8425
X5.5787Y-2.4252
X5.6349Y-3.6071
X5.6357Y-2.84
X5.7395Y-4.6697
X6.3425Y-3.1654
X6.4016Y-1.5276
X6.4055Y-2.4213
X6.868Y-2.5184
X6.9646Y-2.4094
X7.0801Y-2.8404
X7.1063Y-2.1969
X7.145Y-3.0227
X7.315Y-5.0669
X7.3417Y-2.2336
X7.3675Y-3.2421
X7.3918Y-2.3996
X7.3928Y-3.7686
X7.3937Y-2.7912
X7.3941Y-2.9912
X7.3972Y-3.0912
X7.4017Y-2.6025
X7.4019Y-2.4557
X7.4038Y-2.893
X7.4051Y-3.1912
X7.406Y-2.6861
X7.4174Y-2.3265
X7.5849Y-3.345
X7.6244Y-2.1314
X7.6415Y-2.0868
X7.6469Y-2.5343
X7.6535Y-2.2559
X7.6552Y-2.1912
X7.6932Y-2.5734
X7.721Y-2.6417
X7.721Y-2.7495
X7.7225Y-2.9389
X7.7225Y-3.0412
X7.7246Y-3.1412
X7.7314Y-2.3491
X7.7995Y-2.8277
X7.9009Y-2.2355
T2
X7.451Y-3.8268
X7.5667Y-3.8268
T3
X6.3858Y-3.8213
X6.3858Y-3.8713
X6.3858Y-3.9213
X7.5984Y-3.3996
X7.5984Y-3.4496
T4
X2.0551Y-4.2323
X2.0591Y-3.4764
X2.0591Y-4.9764
X2.063Y-1.9921
X2.0945Y-2.7402
X2.3622Y-4.2323
X2.3661Y-3.4764
X2.3661Y-4.9764
X2.3701Y-1.9921
X2.4016Y-2.7402
X2.7953Y-3.4803
X2.7992Y-1.9961
X2.8068Y-4.9764
X2.8071Y-4.2362
X2.811Y-2.7323
X3.1024Y-3.4803
X3.1063Y-1.9961
X3.1139Y-4.9764
X3.1142Y-4.2362
X3.1181Y-2.7323
X3.5394Y-2.5433
X3.5512Y-1.7992
X3.5548Y-4.7795
X3.5551Y-3.2953
X3.5591Y-4.0394
X3.8465Y-2.5433
X3.8583Y-1.7992
X3.8619Y-4.7795
X3.8622Y-3.2953
X3.8661Y-4.0394
X4.2953Y-1.7047
X4.2953Y-2.4606
X4.2992Y-3.2008
X4.3029Y-4.7008
X4.3071Y-3.9567
X4.6024Y-1.7047
X4.6024Y-2.4606
X4.6063Y-3.2008
X4.61Y-4.7008
X4.6142Y-3.9567
X5.0472Y-1.8031
X5.0472Y-4.0512
X5.0512Y-2.5472
X5.063Y-3.2953
X5.1942Y-4.8874
X5.3543Y-1.8031
X5.3543Y-4.0512
X5.3583Y-2.5472
X5.3701Y-3.2953
X5.4908Y-4.9669
X5.7953Y-3.3898
X5.7992Y-1.8976
X5.7992Y-2.6417
X5.8031Y-4.1299
X5.9553Y-4.9783
X6.1024Y-3.3898
X6.1063Y-1.8976
X6.1063Y-2.6417
X6.1102Y-4.1299
X6.2213Y-5.1319
X6.5354Y-2.2283
X6.5748Y-3.1693
X6.5791Y-4.2618
X6.6072Y-5.3524
X6.8425Y-2.2283
X6.8451Y-4.4154
X6.8731Y-5.5059
X6.8819Y-3.1693
X7.2287Y-4.6358
X7.4055Y-3.6614
X7.4947Y-4.7894
X7.563Y-4.0
X7.7126Y-3.6614
X7.7343Y-3.3937
X7.7343Y-3.4921
X7.7343Y-3.5906
X7.8701Y-4.0
T5
X7.1713Y-3.3839
X7.1713Y-3.561
X7.2414Y-2.0912
X7.2414Y-2.0912
X7.2414Y-2.1912
X7.2414Y-2.2912
X7.2414Y-2.3912
X7.2414Y-2.4912
X7.2414Y-2.5912
X7.2414Y-2.6912
X7.2414Y-2.7912
X7.2414Y-2.8912
X7.2414Y-2.9912
X7.2414Y-3.0912
X7.2414Y-3.1912
X7.4272Y-3.3839
X7.4272Y-3.561
X7.8414Y-2.0912
X7.8414Y-2.0912
X7.8414Y-2.1912
X7.8414Y-2.2912
X7.8414Y-2.3912
X7.8414Y-2.4912
X7.8414Y-2.5912
X7.8414Y-2.6912
X7.8414Y-2.7912
X7.8414Y-2.8912
X7.8414Y-2.9912
X7.8414Y-3.0912
X7.8414Y-3.1912
T6
X2.0626Y-1.7575
X2.0626Y-2.5055
X2.0626Y-3.2535
X2.0626Y-4.0016
X2.0626Y-4.7496
X2.1126Y-1.8575
X2.1126Y-2.6055
X2.1126Y-3.3535
X2.1126Y-4.1016
X2.1126Y-4.8496
X2.3126Y-1.8575
X2.3126Y-2.6055
X2.3126Y-3.3535
X2.3126Y-4.1016
X2.3126Y-4.8496
X2.3626Y-1.7575
X2.3626Y-2.5055
X2.3626Y-3.2535
X2.3626Y-4.0016
X2.3626Y-4.7496
X2.8106Y-1.7575
X2.8106Y-2.5055
X2.8106Y-3.2535
X2.8106Y-4.0016
X2.8106Y-4.7496
X2.8606Y-1.8575
X2.8606Y-2.6055
X2.8606Y-3.3535
X2.8606Y-4.1016
X2.8606Y-4.8496
X3.0606Y-1.8575
X3.0606Y-2.6055
X3.0606Y-3.3535
X3.0606Y-4.1016
X3.0606Y-4.8496
X3.1106Y-1.7575
X3.1106Y-2.5055
X3.1106Y-3.2535
X3.1106Y-4.0016
X3.1106Y-4.7496
X3.5587Y-1.5685
X3.5587Y-2.3165
X3.5587Y-3.0646
X3.5587Y-3.8126
X3.5587Y-4.5606
X3.6087Y-1.6685
X3.6087Y-2.4165
X3.6087Y-3.1646
X3.6087Y-3.9126
X3.6087Y-4.6606
X3.8087Y-1.6685
X3.8087Y-2.4165
X3.8087Y-3.1646
X3.8087Y-3.9126
X3.8087Y-4.6606
X3.8587Y-1.5685
X3.8587Y-2.3165
X3.8587Y-3.0646
X3.8587Y-3.8126
X3.8587Y-4.5606
X4.3067Y-1.474
X4.3067Y-2.2228
X4.3067Y-2.9709
X4.3067Y-3.722
X4.3067Y-4.4701
X4.3567Y-1.574
X4.3567Y-2.3228
X4.3567Y-3.0709
X4.3567Y-3.822
X4.3567Y-4.5701
X4.5567Y-1.574
X4.5567Y-2.3228
X4.5567Y-3.0709
X4.5567Y-3.822
X4.5567Y-4.5701
X4.6067Y-1.474
X4.6067Y-2.2228
X4.6067Y-2.9709
X4.6067Y-3.722
X4.6067Y-4.4701
X5.0547Y-1.5677
X5.0547Y-2.3157
X5.0547Y-3.0646
X5.0547Y-3.8157
X5.1047Y-1.6677
X5.1047Y-2.4157
X5.1047Y-3.1646
X5.1047Y-3.9157
X5.2584Y-4.668
X5.2808Y-4.7775
X5.3047Y-1.6677
X5.3047Y-2.4157
X5.3047Y-3.1646
X5.3047Y-3.9157
X5.3547Y-1.5677
X5.3547Y-2.3157
X5.3547Y-3.0646
X5.3547Y-3.8157
X5.474Y-4.8293
X5.5481Y-4.7457
X5.8028Y-1.663
X5.8028Y-2.4094
X5.8028Y-3.1591
X5.8028Y-3.9071
X5.8528Y-1.763
X5.8528Y-2.5094
X5.8528Y-3.2591
X5.8528Y-4.0071
X6.0528Y-1.763
X6.0528Y-2.5094
X6.0528Y-3.2591
X6.0528Y-4.0071
X6.1028Y-1.663
X6.1028Y-2.4094
X6.1028Y-3.1591
X6.1028Y-3.9071
X6.1759Y-4.8407
X6.2375Y-4.934
X6.2759Y-4.6675
X6.3875Y-4.6742
X6.5008Y-2.7346
X6.5008Y-2.9346
X6.5508Y-1.9976
X6.6008Y-2.0976
X6.6008Y-2.6846
X6.6008Y-2.9846
X6.6835Y-4.1704
X6.6902Y-4.0588
X6.8008Y-2.0976
X6.824Y-5.2149
X6.8508Y-1.9976
X6.8567Y-4.2704
X6.8856Y-5.3083
X6.924Y-5.0417
X6.95Y-4.2088
X7.0356Y-5.0484
X7.3313Y-4.5445
X7.338Y-4.4329
X7.5045Y-4.6445
X7.5978Y-4.5829
T4
G00X7.4702Y-3.7441
M15
G01X7.549Y-3.7441
M16
G05
G00X7.4702Y-3.9094
M15
G01X7.549Y-3.9094
M16
G05
G00X7.6868Y-3.7441
M15
G01X7.7065Y-3.7441
M16
G05
G00X7.7065Y-3.9094
M15
G01X7.6868Y-3.9094
M16
G05
G00X7.8049Y-3.7441
M15
G01X7.8246Y-3.7441
M16
G05
G00X7.8246Y-3.9094
M15
G01X7.8049Y-3.9094
M16
G05
T0
M30
