M48
; DRILL file {KiCad (6.0.11)} date lun 13 feb 2023 19:32:03
; FORMAT={-:-/ absolute / inch / decimal}
; #@! TF.CreationDate,2023-02-13T19:32:03+01:00
; #@! TF.GenerationSoftware,Kicad,Pcbnew,(6.0.11)
; #@! TF.FileFunction,NonPlated,1,2,NPTH
FMAT,2
INCH
; #@! TA.AperFunction,NonPlated,NPTH,ComponentDrill
T1C0.0354
; #@! TA.AperFunction,NonPlated,NPTH,ComponentDrill
T2C0.0472
; #@! TA.AperFunction,NonPlated,NPTH,ComponentDrill
T3C0.0670
; #@! TA.AperFunction,NonPlated,NPTH,ComponentDrill
T4C0.1181
; #@! TA.AperFunction,NonPlated,NPTH,ComponentDrill
T5C0.1260
; #@! TA.AperFunction,NonPlated,NPTH,ComponentDrill
T6C0.1570
%
G90
G05
T1
X7.8425Y-3.3583
X7.8425Y-3.626
T2
X7.61Y-3.8268
X7.61Y-3.8268
X7.8856Y-3.8268
X7.8856Y-3.8268
T3
X2.0126Y-1.6575
X2.0126Y-2.4055
X2.0126Y-3.1535
X2.0126Y-3.9016
X2.0126Y-4.6496
X2.4126Y-1.6575
X2.4126Y-2.4055
X2.4126Y-3.1535
X2.4126Y-3.9016
X2.4126Y-4.6496
X2.7606Y-1.6575
X2.7606Y-2.4055
X2.7606Y-3.1535
X2.7606Y-3.9016
X2.7606Y-4.6496
X3.1606Y-1.6575
X3.1606Y-2.4055
X3.1606Y-3.1535
X3.1606Y-3.9016
X3.1606Y-4.6496
X3.5087Y-1.4685
X3.5087Y-2.2165
X3.5087Y-2.9646
X3.5087Y-3.7126
X3.5087Y-4.4606
X3.9087Y-1.4685
X3.9087Y-2.2165
X3.9087Y-2.9646
X3.9087Y-3.7126
X3.9087Y-4.4606
X4.2567Y-1.374
X4.2567Y-2.1228
X4.2567Y-2.8709
X4.2567Y-3.622
X4.2567Y-4.3701
X4.6567Y-1.374
X4.6567Y-2.1228
X4.6567Y-2.8709
X4.6567Y-3.622
X4.6567Y-4.3701
X5.0047Y-1.4677
X5.0047Y-2.2157
X5.0047Y-2.9646
X5.0047Y-3.7157
X5.2359Y-4.5585
X5.4047Y-1.4677
X5.4047Y-2.2157
X5.4047Y-2.9646
X5.4047Y-3.7157
X5.6223Y-4.662
X5.7528Y-1.563
X5.7528Y-2.3094
X5.7528Y-3.0591
X5.7528Y-3.8071
X6.1528Y-1.563
X6.1528Y-2.3094
X6.1528Y-3.0591
X6.1528Y-3.8071
X6.2991Y-5.0273
X6.4991Y-4.6809
X6.5008Y-1.8976
X6.6969Y-3.9472
X6.7008Y-2.6346
X6.7008Y-3.0346
X6.9008Y-1.8976
X6.9472Y-5.4016
X7.0433Y-4.1472
X7.1472Y-5.0551
X7.3447Y-4.3213
X7.6911Y-4.5213
T4
X2.0602Y-1.5575
X2.0602Y-2.3055
X2.0602Y-3.0535
X2.0602Y-3.8016
X2.0602Y-4.5496
X2.1126Y-1.4575
X2.1126Y-2.2055
X2.1126Y-2.9535
X2.1126Y-3.7016
X2.1126Y-4.4496
X2.3102Y-1.4575
X2.3102Y-2.2055
X2.3102Y-2.9535
X2.3102Y-3.7016
X2.3102Y-4.4496
X2.3626Y-1.5575
X2.3626Y-2.3055
X2.3626Y-3.0535
X2.3626Y-3.8016
X2.3626Y-4.5496
X2.8083Y-1.5575
X2.8083Y-2.3055
X2.8083Y-3.0535
X2.8083Y-3.8016
X2.8083Y-4.5496
X2.8606Y-1.4575
X2.8606Y-2.2055
X2.8606Y-2.9535
X2.8606Y-3.7016
X2.8606Y-4.4496
X3.0583Y-1.4575
X3.0583Y-2.2055
X3.0583Y-2.9535
X3.0583Y-3.7016
X3.0583Y-4.4496
X3.1106Y-1.5575
X3.1106Y-2.3055
X3.1106Y-3.0535
X3.1106Y-3.8016
X3.1106Y-4.5496
X3.5563Y-1.3685
X3.5563Y-2.1165
X3.5563Y-2.8646
X3.5563Y-3.6126
X3.5563Y-4.3606
X3.6087Y-1.2685
X3.6087Y-2.0165
X3.6087Y-2.7646
X3.6087Y-3.5126
X3.6087Y-4.2606
X3.8063Y-1.2685
X3.8063Y-2.0165
X3.8063Y-2.7646
X3.8063Y-3.5126
X3.8063Y-4.2606
X3.8587Y-1.3685
X3.8587Y-2.1165
X3.8587Y-2.8646
X3.8587Y-3.6126
X3.8587Y-4.3606
X4.3043Y-1.274
X4.3043Y-2.0228
X4.3043Y-2.7709
X4.3043Y-3.522
X4.3043Y-4.2701
X4.3567Y-1.174
X4.3567Y-1.9228
X4.3567Y-2.6709
X4.3567Y-3.422
X4.3567Y-4.1701
X4.5543Y-1.174
X4.5543Y-1.9228
X4.5543Y-2.6709
X4.5543Y-3.422
X4.5543Y-4.1701
X4.6067Y-1.274
X4.6067Y-2.0228
X4.6067Y-2.7709
X4.6067Y-3.522
X4.6067Y-4.2701
X5.0524Y-1.3677
X5.0524Y-2.1157
X5.0524Y-2.8646
X5.0524Y-3.6157
X5.1047Y-1.2677
X5.1047Y-2.0157
X5.1047Y-2.7646
X5.1047Y-3.5157
X5.3024Y-1.2677
X5.3024Y-2.0157
X5.3024Y-2.7646
X5.3024Y-3.5157
X5.3078Y-4.4742
X5.3547Y-1.3677
X5.3547Y-2.1157
X5.3547Y-2.8646
X5.3547Y-3.6157
X5.3843Y-4.3912
X5.5752Y-4.4423
X5.5999Y-4.5525
X5.8004Y-1.463
X5.8004Y-2.2094
X5.8004Y-2.9591
X5.8004Y-3.7071
X5.8528Y-1.363
X5.8528Y-2.1094
X5.8528Y-2.8591
X5.8528Y-3.6071
X6.0504Y-1.363
X6.0504Y-2.1094
X6.0504Y-2.8591
X6.0504Y-3.6071
X6.1028Y-1.463
X6.1028Y-2.2094
X6.1028Y-2.9591
X6.1028Y-3.7071
X6.4107Y-5.034
X6.5235Y-5.0387
X6.5484Y-1.7976
X6.5619Y-4.7722
X6.6008Y-1.6976
X6.6223Y-4.8675
X6.7881Y-3.8845
X6.7984Y-1.6976
X6.8008Y-2.6823
X6.8008Y-2.9846
X6.8508Y-1.7976
X6.8835Y-3.824
X6.9008Y-2.7346
X6.9008Y-2.9323
X7.05Y-4.0356
X7.0546Y-3.9229
X7.0588Y-5.4083
X7.1716Y-5.4129
X7.21Y-5.1464
X7.2704Y-5.2417
X7.4359Y-4.2585
X7.5313Y-4.1981
X7.6978Y-4.4097
X7.7025Y-4.2969
T5
X2.5861Y-2.031
X2.5865Y-4.2747
X6.3263Y-1.9375
X6.9119Y-4.7178
T6
X2.2126Y-1.6575
X2.2126Y-2.4055
X2.2126Y-3.1535
X2.2126Y-3.9016
X2.2126Y-4.6496
X2.9606Y-1.6575
X2.9606Y-2.4055
X2.9606Y-3.1535
X2.9606Y-3.9016
X2.9606Y-4.6496
X3.7087Y-1.4685
X3.7087Y-2.2165
X3.7087Y-2.9646
X3.7087Y-3.7126
X3.7087Y-4.4606
X4.4567Y-1.374
X4.4567Y-2.1228
X4.4567Y-2.8709
X4.4567Y-3.622
X4.4567Y-4.3701
X5.2047Y-1.4677
X5.2047Y-2.2157
X5.2047Y-2.9646
X5.2047Y-3.7157
X5.4291Y-4.6102
X5.9528Y-1.563
X5.9528Y-2.3094
X5.9528Y-3.0591
X5.9528Y-3.8071
X6.3991Y-4.8541
X6.7008Y-1.8976
X6.7008Y-2.8346
X6.8701Y-4.0472
X7.0472Y-5.2283
X7.5179Y-4.4213
T0
M30
