M48
; DRILL file {KiCad (6.0.11)} date lun 13 feb 2023 19:32:03
; FORMAT={-:-/ absolute / inch / decimal}
; #@! TF.CreationDate,2023-02-13T19:32:03+01:00
; #@! TF.GenerationSoftware,Kicad,Pcbnew,(6.0.11)
; #@! TF.FileFunction,Plated,1,2,PTH
FMAT,2
INCH
; #@! TA.AperFunction,Plated,PTH,ViaDrill
T1C0.0157
; #@! TA.AperFunction,Plated,PTH,ComponentDrill
T2C0.0197
; #@! TA.AperFunction,Plated,PTH,ComponentDrill
T3C0.0256
; #@! TA.AperFunction,Plated,PTH,ComponentDrill
T4C0.0394
; #@! TA.AperFunction,Plated,PTH,ComponentDrill
T5C0.0433
; #@! TA.AperFunction,Plated,PTH,ComponentDrill
T6C0.0590
%
G90
G05
T1
X3.3921Y-3.5126
X4.1396Y-2.6687
X4.141Y-3.422
X4.1411Y-4.1704
X4.811Y-1.4803
X4.8189Y-3.063
X4.8268Y-2.2913
X4.8878Y-2.7646
X4.8881Y-2.0157
X4.9741Y-3.5841
X5.6363Y-3.6071
X5.6368Y-2.8591
X5.6369Y-1.363
X5.698Y-4.6696
X6.2441Y-4.315
X6.3543Y-2.6772
X6.3543Y-3.126
X6.3701Y-2.3543
X6.5433Y-3.3858
X6.6339Y-2.4935
X6.748Y-2.4331
X6.9209Y-3.4892
X6.9301Y-1.8294
X7.0315Y-2.7087
X7.0394Y-2.9213
X7.0866Y-4.7953
X7.1033Y-4.1458
X7.1264Y-2.7489
X7.152Y-2.6659
X7.3079Y-3.5161
X7.315Y-5.063
X7.3514Y-2.2492
X7.3514Y-2.5412
X7.3721Y-2.4515
X7.3735Y-3.2795
X7.3794Y-2.7902
X7.3795Y-3.1912
X7.3798Y-2.8853
X7.3799Y-2.6912
X7.3804Y-3.0967
X7.3805Y-2.3912
X7.3848Y-2.0912
X7.3853Y-3.0318
X7.4237Y-2.3437
X7.4661Y-3.2794
X7.4774Y-2.2822
X7.5906Y-4.0945
X7.654Y-2.2039
X7.6643Y-2.9492
X7.6824Y-2.4832
X7.6879Y-3.0723
X7.6932Y-2.5734
X7.697Y-2.7568
X7.7098Y-2.6529
X7.7314Y-2.1339
X7.7314Y-2.9327
X7.7314Y-3.1412
T2
X7.451Y-3.8268
X7.5667Y-3.8268
T3
X6.3858Y-3.8213
X6.3858Y-3.8713
X6.3858Y-3.9213
X7.5984Y-3.3996
X7.5984Y-3.4496
T4
X2.0551Y-4.2323
X2.0591Y-3.4764
X2.0591Y-4.9764
X2.063Y-1.9921
X2.0945Y-2.7402
X2.3622Y-4.2323
X2.3661Y-3.4764
X2.3661Y-4.9764
X2.3701Y-1.9921
X2.4016Y-2.7402
X2.7953Y-3.4803
X2.7992Y-1.9961
X2.8068Y-4.9764
X2.8071Y-4.2362
X2.811Y-2.7323
X3.1024Y-3.4803
X3.1063Y-1.9961
X3.1139Y-4.9764
X3.1142Y-4.2362
X3.1181Y-2.7323
X3.5394Y-2.5433
X3.5512Y-1.7992
X3.5548Y-4.7795
X3.5551Y-3.2953
X3.5591Y-4.0394
X3.8465Y-2.5433
X3.8583Y-1.7992
X3.8619Y-4.7795
X3.8622Y-3.2953
X3.8661Y-4.0394
X4.2953Y-1.7047
X4.2953Y-2.4606
X4.2992Y-3.2008
X4.3029Y-4.7008
X4.3071Y-3.9567
X4.6024Y-1.7047
X4.6024Y-2.4606
X4.6063Y-3.2008
X4.61Y-4.7008
X4.6142Y-3.9567
X5.0472Y-1.8031
X5.0472Y-4.0512
X5.0512Y-2.5472
X5.063Y-3.2953
X5.1942Y-4.8874
X5.3543Y-1.8031
X5.3543Y-4.0512
X5.3583Y-2.5472
X5.3701Y-3.2953
X5.4908Y-4.9669
X5.7953Y-3.3898
X5.7992Y-1.8976
X5.7992Y-2.6417
X5.8031Y-4.1299
X5.9553Y-4.9783
X6.1024Y-3.3898
X6.1063Y-1.8976
X6.1063Y-2.6417
X6.1102Y-4.1299
X6.2213Y-5.1319
X6.5354Y-2.2283
X6.5748Y-3.1693
X6.5791Y-4.2618
X6.6072Y-5.3524
X6.8425Y-2.2283
X6.8451Y-4.4154
X6.8731Y-5.5059
X6.8819Y-3.1693
X7.2287Y-4.6358
X7.4055Y-3.6614
X7.4449Y-3.9843
X7.4947Y-4.7894
X7.7126Y-3.6614
X7.7343Y-3.3937
X7.7343Y-3.4921
X7.7343Y-3.5906
X7.752Y-3.9843
T5
X7.1713Y-3.3839
X7.1713Y-3.561
X7.2414Y-2.0912
X7.2414Y-2.0912
X7.2414Y-2.1912
X7.2414Y-2.2912
X7.2414Y-2.3912
X7.2414Y-2.4912
X7.2414Y-2.5912
X7.2414Y-2.6912
X7.2414Y-2.7912
X7.2414Y-2.8912
X7.2414Y-2.9912
X7.2414Y-3.0912
X7.2414Y-3.1912
X7.4272Y-3.3839
X7.4272Y-3.561
X7.8414Y-2.0912
X7.8414Y-2.0912
X7.8414Y-2.1912
X7.8414Y-2.2912
X7.8414Y-2.3912
X7.8414Y-2.4912
X7.8414Y-2.5912
X7.8414Y-2.6912
X7.8414Y-2.7912
X7.8414Y-2.8912
X7.8414Y-2.9912
X7.8414Y-3.0912
X7.8414Y-3.1912
T6
X2.0626Y-1.7575
X2.0626Y-2.5055
X2.0626Y-3.2535
X2.0626Y-4.0016
X2.0626Y-4.7496
X2.1126Y-1.8575
X2.1126Y-2.6055
X2.1126Y-3.3535
X2.1126Y-4.1016
X2.1126Y-4.8496
X2.3126Y-1.8575
X2.3126Y-2.6055
X2.3126Y-3.3535
X2.3126Y-4.1016
X2.3126Y-4.8496
X2.3626Y-1.7575
X2.3626Y-2.5055
X2.3626Y-3.2535
X2.3626Y-4.0016
X2.3626Y-4.7496
X2.8106Y-1.7575
X2.8106Y-2.5055
X2.8106Y-3.2535
X2.8106Y-4.0016
X2.8106Y-4.7496
X2.8606Y-1.8575
X2.8606Y-2.6055
X2.8606Y-3.3535
X2.8606Y-4.1016
X2.8606Y-4.8496
X3.0606Y-1.8575
X3.0606Y-2.6055
X3.0606Y-3.3535
X3.0606Y-4.1016
X3.0606Y-4.8496
X3.1106Y-1.7575
X3.1106Y-2.5055
X3.1106Y-3.2535
X3.1106Y-4.0016
X3.1106Y-4.7496
X3.5587Y-1.5685
X3.5587Y-2.3165
X3.5587Y-3.0646
X3.5587Y-3.8126
X3.5587Y-4.5606
X3.6087Y-1.6685
X3.6087Y-2.4165
X3.6087Y-3.1646
X3.6087Y-3.9126
X3.6087Y-4.6606
X3.8087Y-1.6685
X3.8087Y-2.4165
X3.8087Y-3.1646
X3.8087Y-3.9126
X3.8087Y-4.6606
X3.8587Y-1.5685
X3.8587Y-2.3165
X3.8587Y-3.0646
X3.8587Y-3.8126
X3.8587Y-4.5606
X4.3067Y-1.474
X4.3067Y-2.2228
X4.3067Y-2.9709
X4.3067Y-3.722
X4.3067Y-4.4701
X4.3567Y-1.574
X4.3567Y-2.3228
X4.3567Y-3.0709
X4.3567Y-3.822
X4.3567Y-4.5701
X4.5567Y-1.574
X4.5567Y-2.3228
X4.5567Y-3.0709
X4.5567Y-3.822
X4.5567Y-4.5701
X4.6067Y-1.474
X4.6067Y-2.2228
X4.6067Y-2.9709
X4.6067Y-3.722
X4.6067Y-4.4701
X5.0547Y-1.5677
X5.0547Y-2.3157
X5.0547Y-3.0646
X5.0547Y-3.8157
X5.1047Y-1.6677
X5.1047Y-2.4157
X5.1047Y-3.1646
X5.1047Y-3.9157
X5.2584Y-4.668
X5.2808Y-4.7775
X5.3047Y-1.6677
X5.3047Y-2.4157
X5.3047Y-3.1646
X5.3047Y-3.9157
X5.3547Y-1.5677
X5.3547Y-2.3157
X5.3547Y-3.0646
X5.3547Y-3.8157
X5.474Y-4.8293
X5.5481Y-4.7457
X5.8028Y-1.663
X5.8028Y-2.4094
X5.8028Y-3.1591
X5.8028Y-3.9071
X5.8528Y-1.763
X5.8528Y-2.5094
X5.8528Y-3.2591
X5.8528Y-4.0071
X6.0528Y-1.763
X6.0528Y-2.5094
X6.0528Y-3.2591
X6.0528Y-4.0071
X6.1028Y-1.663
X6.1028Y-2.4094
X6.1028Y-3.1591
X6.1028Y-3.9071
X6.1759Y-4.8407
X6.2375Y-4.934
X6.2759Y-4.6675
X6.3875Y-4.6742
X6.5008Y-2.7346
X6.5008Y-2.9346
X6.5508Y-1.9976
X6.6008Y-2.0976
X6.6008Y-2.6846
X6.6008Y-2.9846
X6.6835Y-4.1704
X6.6902Y-4.0588
X6.8008Y-2.0976
X6.824Y-5.2149
X6.8508Y-1.9976
X6.8567Y-4.2704
X6.8856Y-5.3083
X6.924Y-5.0417
X6.95Y-4.2088
X7.0356Y-5.0484
X7.3313Y-4.5445
X7.338Y-4.4329
X7.5045Y-4.6445
X7.5978Y-4.5829
T4
G00X7.4702Y-3.7441
M15
G01X7.549Y-3.7441
M16
G05
G00X7.4702Y-3.9094
M15
G01X7.549Y-3.9094
M16
G05
G00X7.6868Y-3.7441
M15
G01X7.7065Y-3.7441
M16
G05
G00X7.7065Y-3.9094
M15
G01X7.6868Y-3.9094
M16
G05
G00X7.8049Y-3.7441
M15
G01X7.8246Y-3.7441
M16
G05
G00X7.8246Y-3.9094
M15
G01X7.8049Y-3.9094
M16
G05
T0
M30
