G04 #@! TF.GenerationSoftware,KiCad,Pcbnew,(6.0.11)*
G04 #@! TF.CreationDate,2023-02-13T20:58:38+01:00*
G04 #@! TF.ProjectId,neodox_rounded,6e656f64-6f78-45f7-926f-756e6465642e,1.0*
G04 #@! TF.SameCoordinates,Original*
G04 #@! TF.FileFunction,Profile,NP*
%FSLAX46Y46*%
G04 Gerber Fmt 4.6, Leading zero omitted, Abs format (unit mm)*
G04 Created by KiCad (PCBNEW (6.0.11)) date 2023-02-13 20:58:38*
%MOMM*%
%LPD*%
G01*
G04 APERTURE LIST*
G04 #@! TA.AperFunction,Profile*
%ADD10C,0.150000*%
G04 #@! TD*
G04 APERTURE END LIST*
D10*
X163692895Y-28207105D02*
X163692895Y-34757105D01*
X201692895Y-51757105D02*
G75*
G03*
X200692895Y-50757105I-999995J5D01*
G01*
X100692895Y-23832105D02*
X100692895Y-23457105D01*
X81692895Y-28582105D02*
X81692895Y-25832105D01*
X125692895Y-23457105D02*
X125692895Y-23832105D01*
X88692895Y-125832105D02*
X105692895Y-125832105D01*
X182692895Y-49757105D02*
X182692895Y-36757105D01*
X82692895Y-24832105D02*
X99692895Y-24832105D01*
X80692895Y-29582095D02*
G75*
G03*
X81692895Y-28582105I5J999995D01*
G01*
X126692895Y-24832105D02*
X143692895Y-24832105D01*
X87692895Y-126832105D02*
X87692895Y-129582105D01*
X182935195Y-151073208D02*
X207497695Y-108529710D01*
X182692895Y-36757105D02*
G75*
G03*
X181692895Y-35757105I-999995J5D01*
G01*
X163692895Y-28207105D02*
G75*
G03*
X162692895Y-27207105I-999995J5D01*
G01*
X43692895Y-129582105D02*
X43692895Y-30582105D01*
X107692895Y-123457105D02*
X113070173Y-123457105D01*
X163692895Y-34757105D02*
G75*
G03*
X164692895Y-35757105I1000005J5D01*
G01*
X144692895Y-25832105D02*
X144692895Y-26207105D01*
X182692895Y-49757105D02*
G75*
G03*
X183692895Y-50757105I1000005J5D01*
G01*
X107692895Y-123457095D02*
G75*
G03*
X106692895Y-124457105I5J-1000005D01*
G01*
X200692895Y-50757105D02*
X183692895Y-50757105D01*
X150451379Y-133473375D02*
G75*
G03*
X150210201Y-133373470I-499979J-865925D01*
G01*
X125692895Y-23457105D02*
G75*
G03*
X124692895Y-22457105I-999995J5D01*
G01*
X144692895Y-26207105D02*
G75*
G03*
X145692895Y-27207105I1000005J5D01*
G01*
X144692895Y-25832105D02*
G75*
G03*
X143692895Y-24832105I-999995J5D01*
G01*
X105692895Y-125832095D02*
G75*
G03*
X106692895Y-124832105I5J999995D01*
G01*
X44692895Y-29582095D02*
G75*
G03*
X43692895Y-30582105I5J-1000005D01*
G01*
X101692895Y-22457105D02*
X124692895Y-22457105D01*
X82692895Y-24832095D02*
G75*
G03*
X81692895Y-25832105I5J-1000005D01*
G01*
X181569192Y-151439195D02*
G75*
G03*
X182935195Y-151073208I500008J865995D01*
G01*
X201692886Y-103446256D02*
G75*
G03*
X202192895Y-104312281I999914J-44D01*
G01*
X106692895Y-124457105D02*
X106692895Y-124832105D01*
X43692895Y-129582105D02*
G75*
G03*
X44692895Y-130582105I1000005J5D01*
G01*
X99692895Y-24832095D02*
G75*
G03*
X100692895Y-23832105I5J999995D01*
G01*
X44692895Y-130582105D02*
X86692895Y-130582105D01*
X201692895Y-103446256D02*
X201692895Y-51757105D01*
X88692895Y-125832095D02*
G75*
G03*
X87692895Y-126832105I5J-1000005D01*
G01*
X125692895Y-23832105D02*
G75*
G03*
X126692895Y-24832105I1000005J5D01*
G01*
X164692895Y-35757105D02*
X181692895Y-35757105D01*
X207497693Y-108529709D02*
G75*
G03*
X207131670Y-107163685I-865993J500009D01*
G01*
X86692895Y-130582095D02*
G75*
G03*
X87692895Y-129582105I5J999995D01*
G01*
X113328992Y-123491179D02*
X150210201Y-133373470D01*
X202192895Y-104312281D02*
X207131670Y-107163684D01*
X150451382Y-133473370D02*
X181569170Y-151439233D01*
X113328992Y-123491179D02*
G75*
G03*
X113070173Y-123457105I-258792J-965721D01*
G01*
X44692895Y-29582105D02*
X80692895Y-29582105D01*
X101692895Y-22457095D02*
G75*
G03*
X100692895Y-23457105I5J-1000005D01*
G01*
X145692895Y-27207105D02*
X162692895Y-27207105D01*
M02*
