G04 #@! TF.GenerationSoftware,KiCad,Pcbnew,(6.0.11)*
G04 #@! TF.CreationDate,2023-02-13T19:32:05+01:00*
G04 #@! TF.ProjectId,neodox,6e656f64-6f78-42e6-9b69-6361645f7063,1.0*
G04 #@! TF.SameCoordinates,Original*
G04 #@! TF.FileFunction,Paste,Top*
G04 #@! TF.FilePolarity,Positive*
%FSLAX46Y46*%
G04 Gerber Fmt 4.6, Leading zero omitted, Abs format (unit mm)*
G04 Created by KiCad (PCBNEW (6.0.11)) date 2023-02-13 19:32:05*
%MOMM*%
%LPD*%
G01*
G04 APERTURE LIST*
G04 Aperture macros list*
%AMRotRect*
0 Rectangle, with rotation*
0 The origin of the aperture is its center*
0 $1 length*
0 $2 width*
0 $3 Rotation angle, in degrees counterclockwise*
0 Add horizontal line*
21,1,$1,$2,0,0,$3*%
G04 Aperture macros list end*
%ADD10RotRect,2.550000X2.500000X330.000000*%
%ADD11R,2.550000X2.500000*%
%ADD12R,1.600000X1.200000*%
%ADD13RotRect,1.600000X1.200000X150.000000*%
%ADD14R,2.500000X2.550000*%
%ADD15RotRect,2.550000X2.500000X240.000000*%
%ADD16RotRect,2.550000X2.500000X345.000000*%
%ADD17R,1.500000X1.200000*%
%ADD18RotRect,1.600000X1.200000X165.000000*%
G04 APERTURE END LIST*
D10*
X171592700Y-95255591D03*
X182317152Y-104380295D03*
D11*
X106910000Y-48840000D03*
X120760000Y-51380000D03*
D12*
X130800000Y-64700000D03*
X133600000Y-64700000D03*
D13*
X169275164Y-109500000D03*
X171700036Y-110900000D03*
X169987564Y-137200000D03*
X172412436Y-138600000D03*
D12*
X111700000Y-81300000D03*
X114500000Y-81300000D03*
X111600000Y-43300000D03*
X114400000Y-43300000D03*
D11*
X87910000Y-89220000D03*
X101760000Y-91760000D03*
X68910000Y-56020000D03*
X82760000Y-58560000D03*
D12*
X130700000Y-102900000D03*
X133500000Y-102900000D03*
X54800000Y-88300000D03*
X57600000Y-88300000D03*
D11*
X125910000Y-70220000D03*
X139760000Y-72760000D03*
D14*
X175280000Y-65710000D03*
X172740000Y-79560000D03*
D10*
X188047200Y-104755591D03*
X198771652Y-113880295D03*
D12*
X149900000Y-104900000D03*
X152700000Y-104900000D03*
D11*
X144910000Y-91620000D03*
X158760000Y-94160000D03*
D12*
X73500000Y-88400000D03*
X76300000Y-88400000D03*
X73792900Y-126400000D03*
X76592900Y-126400000D03*
D13*
X153430164Y-127700000D03*
X155855036Y-129100000D03*
D11*
X49910000Y-37020000D03*
X63760000Y-39560000D03*
X125910000Y-51200000D03*
X139760000Y-53740000D03*
D12*
X111600000Y-62500000D03*
X114400000Y-62500000D03*
X73600000Y-50700000D03*
X76400000Y-50700000D03*
D11*
X163910000Y-43120000D03*
X177760000Y-45660000D03*
X49910000Y-75020000D03*
X63760000Y-77560000D03*
D12*
X169500000Y-80500000D03*
X172300000Y-80500000D03*
X73800000Y-107600000D03*
X76600000Y-107600000D03*
D11*
X125910000Y-89300000D03*
X139760000Y-91840000D03*
D15*
X170081309Y-120387700D03*
X160956605Y-131112152D03*
D11*
X106910000Y-29820000D03*
X120760000Y-32360000D03*
D13*
X185775164Y-119000000D03*
X188200036Y-120400000D03*
D12*
X92792900Y-121400000D03*
X95592900Y-121400000D03*
X131100000Y-83700000D03*
X133900000Y-83700000D03*
X73900000Y-69400000D03*
X76700000Y-69400000D03*
D11*
X68910000Y-94020000D03*
X82760000Y-96560000D03*
X87910000Y-108220000D03*
X101760000Y-110760000D03*
D12*
X55700000Y-69600000D03*
X58500000Y-69600000D03*
D11*
X68910000Y-37020000D03*
X82760000Y-39560000D03*
D12*
X149700000Y-86100000D03*
X152500000Y-86100000D03*
D11*
X144910000Y-72620000D03*
X158760000Y-75160000D03*
D12*
X111792900Y-119400000D03*
X114592900Y-119400000D03*
D16*
X133139127Y-110565125D03*
X145859800Y-116603220D03*
D11*
X49910000Y-94020000D03*
X63760000Y-96560000D03*
X87910000Y-70220000D03*
X101760000Y-72760000D03*
X125910000Y-32200000D03*
X139760000Y-34740000D03*
D12*
X54700000Y-107500000D03*
X57500000Y-107500000D03*
X54800000Y-126400000D03*
X57600000Y-126400000D03*
X149800000Y-67100000D03*
X152600000Y-67100000D03*
D11*
X144910000Y-34620000D03*
X158760000Y-37160000D03*
D12*
X168500000Y-56600000D03*
X171300000Y-56600000D03*
D17*
X194350000Y-101200000D03*
X191650000Y-101200000D03*
D11*
X106910000Y-86920000D03*
X120760000Y-89460000D03*
D12*
X111900000Y-100500000D03*
X114700000Y-100500000D03*
D11*
X87910000Y-32220000D03*
X101760000Y-34760000D03*
X49910000Y-56020000D03*
X63760000Y-58560000D03*
X144910000Y-53580000D03*
X158760000Y-56120000D03*
D12*
X92700000Y-45700000D03*
X95500000Y-45700000D03*
D18*
X134347704Y-124787653D03*
X137052296Y-125512347D03*
D11*
X68910000Y-75020000D03*
X82760000Y-77560000D03*
D12*
X130700000Y-45800000D03*
X133500000Y-45800000D03*
X92400000Y-64600000D03*
X95200000Y-64600000D03*
X92900000Y-102600000D03*
X95700000Y-102600000D03*
X149800000Y-48200000D03*
X152600000Y-48200000D03*
D11*
X106910000Y-105920000D03*
X120760000Y-108460000D03*
X106910000Y-67840000D03*
X120760000Y-70380000D03*
X87910000Y-51220000D03*
X101760000Y-53760000D03*
D12*
X92800000Y-83700000D03*
X95600000Y-83700000D03*
D11*
X68910000Y-113020000D03*
X82760000Y-115560000D03*
D15*
X186544409Y-129892700D03*
X177419705Y-140617152D03*
D17*
X193350000Y-93000000D03*
X190650000Y-93000000D03*
D11*
X49910000Y-113020000D03*
X63760000Y-115560000D03*
D12*
X54900000Y-50600000D03*
X57700000Y-50600000D03*
M02*
